<?xml version="1.0" encoding="UTF-8" standalone="no"?>
<!-- Created with Inkscape (http://www.inkscape.org/) -->

<svg
   xmlns:dc="http://purl.org/dc/elements/1.1/"
   xmlns:cc="http://creativecommons.org/ns#"
   xmlns:rdf="http://www.w3.org/1999/02/22-rdf-syntax-ns#"
   xmlns:svg="http://www.w3.org/2000/svg"
   xmlns="http://www.w3.org/2000/svg"
   xmlns:sodipodi="http://sodipodi.sourceforge.net/DTD/sodipodi-0.dtd"
   xmlns:inkscape="http://www.inkscape.org/namespaces/inkscape"
   width="210mm"
   height="297mm"
   viewBox="0 0 210 297"
   version="1.1"
   id="svg8"
   inkscape:version="0.92.1 r15371"
   sodipodi:docname="Background.svg"
   inkscape:export-filename="C:\Users\Joyce\Desktop\ICH\Nice-giraffe-and-monkey-zoo-background\Background.png"
   inkscape:export-xdpi="347.73169"
   inkscape:export-ydpi="347.73169">
  <defs
     id="defs2">
    <clipPath
       id="clip1">
      <path
         id="path10"
         d="M 342 389 L 556 389 L 556 540 L 342 540 Z M 342 389 " />
    </clipPath>
    <clipPath
       id="clip2">
      <path
         id="path13"
         d="M 490.558594 410.21875 L 424.460938 393.691406 L 383.535156 72.480469 L 341.1875 77.1875 L 345.5625 451.84375 C 343.300781 459.816406 342.070312 467.734375 342.070312 475.050781 C 342.070312 510.707031 371.246094 539.882812 406.902344 539.882812 L 490.558594 539.882812 C 526.21875 539.882812 555.390625 510.707031 555.390625 475.050781 C 555.390625 439.390625 528.203125 424.160156 490.558594 410.21875 " />
    </clipPath>
    <clipPath
       id="clip3">
      <path
         id="path16"
         d="M 341 72 L 436 72 L 436 481 L 341 481 Z M 341 72 " />
    </clipPath>
    <clipPath
       id="clip4">
      <path
         id="path19"
         d="M 490.558594 410.21875 L 424.460938 393.691406 L 383.535156 72.480469 L 341.1875 77.1875 L 345.5625 451.84375 C 343.300781 459.816406 342.070312 467.734375 342.070312 475.050781 C 342.070312 510.707031 371.246094 539.882812 406.902344 539.882812 L 490.558594 539.882812 C 526.21875 539.882812 555.390625 510.707031 555.390625 475.050781 C 555.390625 439.390625 528.203125 424.160156 490.558594 410.21875 " />
    </clipPath>
    <clipPath
       id="clip5">
      <path
         id="path22"
         d="M 400 206 L 407 206 L 407 252 L 400 252 Z M 400 206 " />
    </clipPath>
    <clipPath
       id="clip6">
      <path
         id="path25"
         d="M 490.558594 410.21875 L 424.460938 393.691406 L 383.535156 72.480469 L 341.1875 77.1875 L 345.5625 451.84375 C 343.300781 459.816406 342.070312 467.734375 342.070312 475.050781 C 342.070312 510.707031 371.246094 539.882812 406.902344 539.882812 L 490.558594 539.882812 C 526.21875 539.882812 555.390625 510.707031 555.390625 475.050781 C 555.390625 439.390625 528.203125 424.160156 490.558594 410.21875 " />
    </clipPath>
    <clipPath
       id="clip7">
      <path
         id="path28"
         d="M 379 206 L 407 206 L 407 258 L 379 258 Z M 379 206 " />
    </clipPath>
    <clipPath
       id="clip8">
      <path
         id="path31"
         d="M 490.558594 410.21875 L 424.460938 393.691406 L 383.535156 72.480469 L 341.1875 77.1875 L 345.5625 451.84375 C 343.300781 459.816406 342.070312 467.734375 342.070312 475.050781 C 342.070312 510.707031 371.246094 539.882812 406.902344 539.882812 L 490.558594 539.882812 C 526.21875 539.882812 555.390625 510.707031 555.390625 475.050781 C 555.390625 439.390625 528.203125 424.160156 490.558594 410.21875 " />
    </clipPath>
    <clipPath
       id="clip9">
      <path
         id="path34"
         d="M 342 170 L 379 170 L 379 207 L 342 207 Z M 342 170 " />
    </clipPath>
    <clipPath
       id="clip10">
      <path
         id="path37"
         d="M 490.558594 410.21875 L 424.460938 393.691406 L 383.535156 72.480469 L 341.1875 77.1875 L 345.5625 451.84375 C 343.300781 459.816406 342.070312 467.734375 342.070312 475.050781 C 342.070312 510.707031 371.246094 539.882812 406.902344 539.882812 L 490.558594 539.882812 C 526.21875 539.882812 555.390625 510.707031 555.390625 475.050781 C 555.390625 439.390625 528.203125 424.160156 490.558594 410.21875 " />
    </clipPath>
    <clipPath
       id="clip11">
      <path
         id="path40"
         d="M 366 120 L 394 120 L 394 153 L 366 153 Z M 366 120 " />
    </clipPath>
    <clipPath
       id="clip12">
      <path
         id="path43"
         d="M 490.558594 410.21875 L 424.460938 393.691406 L 383.535156 72.480469 L 341.1875 77.1875 L 345.5625 451.84375 C 343.300781 459.816406 342.070312 467.734375 342.070312 475.050781 C 342.070312 510.707031 371.246094 539.882812 406.902344 539.882812 L 490.558594 539.882812 C 526.21875 539.882812 555.390625 510.707031 555.390625 475.050781 C 555.390625 439.390625 528.203125 424.160156 490.558594 410.21875 " />
    </clipPath>
    <clipPath
       id="clip13">
      <path
         id="path46"
         d="M 342 220 L 373 220 L 373 259 L 342 259 Z M 342 220 " />
    </clipPath>
    <clipPath
       id="clip14">
      <path
         id="path49"
         d="M 490.558594 410.21875 L 424.460938 393.691406 L 383.535156 72.480469 L 341.1875 77.1875 L 345.5625 451.84375 C 343.300781 459.816406 342.070312 467.734375 342.070312 475.050781 C 342.070312 510.707031 371.246094 539.882812 406.902344 539.882812 L 490.558594 539.882812 C 526.21875 539.882812 555.390625 510.707031 555.390625 475.050781 C 555.390625 439.390625 528.203125 424.160156 490.558594 410.21875 " />
    </clipPath>
    <clipPath
       id="clip15">
      <path
         id="path52"
         d="M 395 162 L 399 162 L 399 187 L 395 187 Z M 395 162 " />
    </clipPath>
    <clipPath
       id="clip16">
      <path
         id="path55"
         d="M 490.558594 410.21875 L 424.460938 393.691406 L 383.535156 72.480469 L 341.1875 77.1875 L 345.5625 451.84375 C 343.300781 459.816406 342.070312 467.734375 342.070312 475.050781 C 342.070312 510.707031 371.246094 539.882812 406.902344 539.882812 L 490.558594 539.882812 C 526.21875 539.882812 555.390625 510.707031 555.390625 475.050781 C 555.390625 439.390625 528.203125 424.160156 490.558594 410.21875 " />
    </clipPath>
    <clipPath
       id="clip17">
      <path
         id="path58"
         d="M 389 162 L 399 162 L 399 187 L 389 187 Z M 389 162 " />
    </clipPath>
    <clipPath
       id="clip18">
      <path
         id="path61"
         d="M 490.558594 410.21875 L 424.460938 393.691406 L 383.535156 72.480469 L 341.1875 77.1875 L 345.5625 451.84375 C 343.300781 459.816406 342.070312 467.734375 342.070312 475.050781 C 342.070312 510.707031 371.246094 539.882812 406.902344 539.882812 L 490.558594 539.882812 C 526.21875 539.882812 555.390625 510.707031 555.390625 475.050781 C 555.390625 439.390625 528.203125 424.160156 490.558594 410.21875 " />
    </clipPath>
    <clipPath
       id="clip19">
      <path
         id="path64"
         d="M 343 270 L 393 270 L 393 303 L 343 303 Z M 343 270 " />
    </clipPath>
    <clipPath
       id="clip20">
      <path
         id="path67"
         d="M 490.558594 410.21875 L 424.460938 393.691406 L 383.535156 72.480469 L 341.1875 77.1875 L 345.5625 451.84375 C 343.300781 459.816406 342.070312 467.734375 342.070312 475.050781 C 342.070312 510.707031 371.246094 539.882812 406.902344 539.882812 L 490.558594 539.882812 C 526.21875 539.882812 555.390625 510.707031 555.390625 475.050781 C 555.390625 439.390625 528.203125 424.160156 490.558594 410.21875 " />
    </clipPath>
    <clipPath
       id="clip21">
      <path
         id="path70"
         d="M 344 332 L 365 332 L 365 397 L 344 397 Z M 344 332 " />
    </clipPath>
    <clipPath
       id="clip22">
      <path
         id="path73"
         d="M 490.558594 410.21875 L 424.460938 393.691406 L 383.535156 72.480469 L 341.1875 77.1875 L 345.5625 451.84375 C 343.300781 459.816406 342.070312 467.734375 342.070312 475.050781 C 342.070312 510.707031 371.246094 539.882812 406.902344 539.882812 L 490.558594 539.882812 C 526.21875 539.882812 555.390625 510.707031 555.390625 475.050781 C 555.390625 439.390625 528.203125 424.160156 490.558594 410.21875 " />
    </clipPath>
    <clipPath
       id="clip23">
      <path
         id="path76"
         d="M 418 344 L 419 344 L 419 347 L 418 347 Z M 418 344 " />
    </clipPath>
    <clipPath
       id="clip24">
      <path
         id="path79"
         d="M 490.558594 410.21875 L 424.460938 393.691406 L 383.535156 72.480469 L 341.1875 77.1875 L 345.5625 451.84375 C 343.300781 459.816406 342.070312 467.734375 342.070312 475.050781 C 342.070312 510.707031 371.246094 539.882812 406.902344 539.882812 L 490.558594 539.882812 C 526.21875 539.882812 555.390625 510.707031 555.390625 475.050781 C 555.390625 439.390625 528.203125 424.160156 490.558594 410.21875 " />
    </clipPath>
    <clipPath
       id="clip25">
      <path
         id="path82"
         d="M 415 322 L 419 322 L 419 345 L 415 345 Z M 415 322 " />
    </clipPath>
    <clipPath
       id="clip26">
      <path
         id="path85"
         d="M 490.558594 410.21875 L 424.460938 393.691406 L 383.535156 72.480469 L 341.1875 77.1875 L 345.5625 451.84375 C 343.300781 459.816406 342.070312 467.734375 342.070312 475.050781 C 342.070312 510.707031 371.246094 539.882812 406.902344 539.882812 L 490.558594 539.882812 C 526.21875 539.882812 555.390625 510.707031 555.390625 475.050781 C 555.390625 439.390625 528.203125 424.160156 490.558594 410.21875 " />
    </clipPath>
    <clipPath
       id="clip27">
      <path
         id="path88"
         d="M 368 316 L 419 316 L 419 354 L 368 354 Z M 368 316 " />
    </clipPath>
    <clipPath
       id="clip28">
      <path
         id="path91"
         d="M 490.558594 410.21875 L 424.460938 393.691406 L 383.535156 72.480469 L 341.1875 77.1875 L 345.5625 451.84375 C 343.300781 459.816406 342.070312 467.734375 342.070312 475.050781 C 342.070312 510.707031 371.246094 539.882812 406.902344 539.882812 L 490.558594 539.882812 C 526.21875 539.882812 555.390625 510.707031 555.390625 475.050781 C 555.390625 439.390625 528.203125 424.160156 490.558594 410.21875 " />
    </clipPath>
    <clipPath
       id="clip29">
      <path
         id="path94"
         d="M 430 408 L 470 408 L 470 464 L 430 464 Z M 430 408 " />
    </clipPath>
    <clipPath
       id="clip30">
      <path
         id="path97"
         d="M 490.558594 410.21875 L 424.460938 393.691406 L 383.535156 72.480469 L 341.1875 77.1875 L 345.5625 451.84375 C 343.300781 459.816406 342.070312 467.734375 342.070312 475.050781 C 342.070312 510.707031 371.246094 539.882812 406.902344 539.882812 L 490.558594 539.882812 C 526.21875 539.882812 555.390625 510.707031 555.390625 475.050781 C 555.390625 439.390625 528.203125 424.160156 490.558594 410.21875 " />
    </clipPath>
    <clipPath
       id="clip31">
      <path
         id="path100"
         d="M 414 438 L 434 438 L 434 465 L 414 465 Z M 414 438 " />
    </clipPath>
    <clipPath
       id="clip32">
      <path
         id="path103"
         d="M 490.558594 410.21875 L 424.460938 393.691406 L 383.535156 72.480469 L 341.1875 77.1875 L 345.5625 451.84375 C 343.300781 459.816406 342.070312 467.734375 342.070312 475.050781 C 342.070312 510.707031 371.246094 539.882812 406.902344 539.882812 L 490.558594 539.882812 C 526.21875 539.882812 555.390625 510.707031 555.390625 475.050781 C 555.390625 439.390625 528.203125 424.160156 490.558594 410.21875 " />
    </clipPath>
    <clipPath
       id="clip33">
      <path
         id="path106"
         d="M 422 374 L 425 374 L 425 394 L 422 394 Z M 422 374 " />
    </clipPath>
    <clipPath
       id="clip34">
      <path
         id="path109"
         d="M 490.558594 410.21875 L 424.460938 393.691406 L 383.535156 72.480469 L 341.1875 77.1875 L 345.5625 451.84375 C 343.300781 459.816406 342.070312 467.734375 342.070312 475.050781 C 342.070312 510.707031 371.246094 539.882812 406.902344 539.882812 L 490.558594 539.882812 C 526.21875 539.882812 555.390625 510.707031 555.390625 475.050781 C 555.390625 439.390625 528.203125 424.160156 490.558594 410.21875 " />
    </clipPath>
    <clipPath
       id="clip35">
      <path
         id="path112"
         d="M 424 393 L 432 393 L 432 405 L 424 405 Z M 424 393 " />
    </clipPath>
    <clipPath
       id="clip36">
      <path
         id="path115"
         d="M 490.558594 410.21875 L 424.460938 393.691406 L 383.535156 72.480469 L 341.1875 77.1875 L 345.5625 451.84375 C 343.300781 459.816406 342.070312 467.734375 342.070312 475.050781 C 342.070312 510.707031 371.246094 539.882812 406.902344 539.882812 L 490.558594 539.882812 C 526.21875 539.882812 555.390625 510.707031 555.390625 475.050781 C 555.390625 439.390625 528.203125 424.160156 490.558594 410.21875 " />
    </clipPath>
    <clipPath
       id="clip37">
      <path
         id="path118"
         d="M 382 358 L 426 358 L 426 406 L 382 406 Z M 382 358 " />
    </clipPath>
    <clipPath
       id="clip38">
      <path
         id="path121"
         d="M 490.558594 410.21875 L 424.460938 393.691406 L 383.535156 72.480469 L 341.1875 77.1875 L 345.5625 451.84375 C 343.300781 459.816406 342.070312 467.734375 342.070312 475.050781 C 342.070312 510.707031 371.246094 539.882812 406.902344 539.882812 L 490.558594 539.882812 C 526.21875 539.882812 555.390625 510.707031 555.390625 475.050781 C 555.390625 439.390625 528.203125 424.160156 490.558594 410.21875 " />
    </clipPath>
    <clipPath
       id="clip39">
      <path
         id="path124"
         d="M 366 417 L 416 417 L 416 450 L 366 450 Z M 366 417 " />
    </clipPath>
    <clipPath
       id="clip40">
      <path
         id="path127"
         d="M 490.558594 410.21875 L 424.460938 393.691406 L 383.535156 72.480469 L 341.1875 77.1875 L 345.5625 451.84375 C 343.300781 459.816406 342.070312 467.734375 342.070312 475.050781 C 342.070312 510.707031 371.246094 539.882812 406.902344 539.882812 L 490.558594 539.882812 C 526.21875 539.882812 555.390625 510.707031 555.390625 475.050781 C 555.390625 439.390625 528.203125 424.160156 490.558594 410.21875 " />
    </clipPath>
    <clipPath
       id="clip41">
      <path
         id="path130"
         d="M 420 502 L 485 502 L 485 540 L 420 540 Z M 420 502 " />
    </clipPath>
    <clipPath
       id="clip42">
      <path
         id="path133"
         d="M 490.558594 410.21875 L 424.460938 393.691406 L 383.535156 72.480469 L 341.1875 77.1875 L 345.5625 451.84375 C 343.300781 459.816406 342.070312 467.734375 342.070312 475.050781 C 342.070312 510.707031 371.246094 539.882812 406.902344 539.882812 L 490.558594 539.882812 C 526.21875 539.882812 555.390625 510.707031 555.390625 475.050781 C 555.390625 439.390625 528.203125 424.160156 490.558594 410.21875 " />
    </clipPath>
    <clipPath
       id="clip43">
      <path
         id="path136"
         d="M 364 479 L 419 479 L 419 520 L 364 520 Z M 364 479 " />
    </clipPath>
    <clipPath
       id="clip44">
      <path
         id="path139"
         d="M 490.558594 410.21875 L 424.460938 393.691406 L 383.535156 72.480469 L 341.1875 77.1875 L 345.5625 451.84375 C 343.300781 459.816406 342.070312 467.734375 342.070312 475.050781 C 342.070312 510.707031 371.246094 539.882812 406.902344 539.882812 L 490.558594 539.882812 C 526.21875 539.882812 555.390625 510.707031 555.390625 475.050781 C 555.390625 439.390625 528.203125 424.160156 490.558594 410.21875 " />
    </clipPath>
    <clipPath
       id="clip45">
      <path
         id="path142"
         d="M 398 477 L 414 477 L 414 480 L 398 480 Z M 398 477 " />
    </clipPath>
    <clipPath
       id="clip46">
      <path
         id="path145"
         d="M 490.558594 410.21875 L 424.460938 393.691406 L 383.535156 72.480469 L 341.1875 77.1875 L 345.5625 451.84375 C 343.300781 459.816406 342.070312 467.734375 342.070312 475.050781 C 342.070312 510.707031 371.246094 539.882812 406.902344 539.882812 L 490.558594 539.882812 C 526.21875 539.882812 555.390625 510.707031 555.390625 475.050781 C 555.390625 439.390625 528.203125 424.160156 490.558594 410.21875 " />
    </clipPath>
    <clipPath
       id="clip47">
      <path
         id="path148"
         d="M 342 474 L 343 474 L 343 475 L 342 475 Z M 342 474 " />
    </clipPath>
    <clipPath
       id="clip48">
      <path
         id="path151"
         d="M 490.558594 410.21875 L 424.460938 393.691406 L 383.535156 72.480469 L 341.1875 77.1875 L 345.5625 451.84375 C 343.300781 459.816406 342.070312 467.734375 342.070312 475.050781 C 342.070312 510.707031 371.246094 539.882812 406.902344 539.882812 L 490.558594 539.882812 C 526.21875 539.882812 555.390625 510.707031 555.390625 475.050781 C 555.390625 439.390625 528.203125 424.160156 490.558594 410.21875 " />
    </clipPath>
    <clipPath
       id="clip49">
      <path
         id="path154"
         d="M 342 451 L 361 451 L 361 494 L 342 494 Z M 342 451 " />
    </clipPath>
    <clipPath
       id="clip50">
      <path
         id="path157"
         d="M 490.558594 410.21875 L 424.460938 393.691406 L 383.535156 72.480469 L 341.1875 77.1875 L 345.5625 451.84375 C 343.300781 459.816406 342.070312 467.734375 342.070312 475.050781 C 342.070312 510.707031 371.246094 539.882812 406.902344 539.882812 L 490.558594 539.882812 C 526.21875 539.882812 555.390625 510.707031 555.390625 475.050781 C 555.390625 439.390625 528.203125 424.160156 490.558594 410.21875 " />
    </clipPath>
    <clipPath
       id="clip51">
      <path
         id="path160"
         d="M 345 443 L 365 443 L 365 481 L 345 481 Z M 345 443 " />
    </clipPath>
    <clipPath
       id="clip52">
      <path
         id="path163"
         d="M 490.558594 410.21875 L 424.460938 393.691406 L 383.535156 72.480469 L 341.1875 77.1875 L 345.5625 451.84375 C 343.300781 459.816406 342.070312 467.734375 342.070312 475.050781 C 342.070312 510.707031 371.246094 539.882812 406.902344 539.882812 L 490.558594 539.882812 C 526.21875 539.882812 555.390625 510.707031 555.390625 475.050781 C 555.390625 439.390625 528.203125 424.160156 490.558594 410.21875 " />
    </clipPath>
    <clipPath
       id="clip53">
      <path
         id="path166"
         d="M 524 459 L 556 459 L 556 492 L 524 492 Z M 524 459 " />
    </clipPath>
    <clipPath
       id="clip54">
      <path
         id="path169"
         d="M 490.558594 410.21875 L 424.460938 393.691406 L 383.535156 72.480469 L 341.1875 77.1875 L 345.5625 451.84375 C 343.300781 459.816406 342.070312 467.734375 342.070312 475.050781 C 342.070312 510.707031 371.246094 539.882812 406.902344 539.882812 L 490.558594 539.882812 C 526.21875 539.882812 555.390625 510.707031 555.390625 475.050781 C 555.390625 439.390625 528.203125 424.160156 490.558594 410.21875 " />
    </clipPath>
    <clipPath
       id="clip55">
      <path
         id="path172"
         d="M 491 484 L 523 484 L 523 535 L 491 535 Z M 491 484 " />
    </clipPath>
    <clipPath
       id="clip56">
      <path
         id="path175"
         d="M 490.558594 410.21875 L 424.460938 393.691406 L 383.535156 72.480469 L 341.1875 77.1875 L 345.5625 451.84375 C 343.300781 459.816406 342.070312 467.734375 342.070312 475.050781 C 342.070312 510.707031 371.246094 539.882812 406.902344 539.882812 L 490.558594 539.882812 C 526.21875 539.882812 555.390625 510.707031 555.390625 475.050781 C 555.390625 439.390625 528.203125 424.160156 490.558594 410.21875 " />
    </clipPath>
    <clipPath
       id="clip57">
      <path
         id="path178"
         d="M 439 452 L 495 452 L 495 489 L 439 489 Z M 439 452 " />
    </clipPath>
    <clipPath
       id="clip58">
      <path
         id="path181"
         d="M 490.558594 410.21875 L 424.460938 393.691406 L 383.535156 72.480469 L 341.1875 77.1875 L 345.5625 451.84375 C 343.300781 459.816406 342.070312 467.734375 342.070312 475.050781 C 342.070312 510.707031 371.246094 539.882812 406.902344 539.882812 L 490.558594 539.882812 C 526.21875 539.882812 555.390625 510.707031 555.390625 475.050781 C 555.390625 439.390625 528.203125 424.160156 490.558594 410.21875 " />
    </clipPath>
    <clipPath
       id="clip59">
      <path
         id="path184"
         d="M 497 415 L 533 415 L 533 462 L 497 462 Z M 497 415 " />
    </clipPath>
    <clipPath
       id="clip60">
      <path
         id="path187"
         d="M 490.558594 410.21875 L 424.460938 393.691406 L 383.535156 72.480469 L 341.1875 77.1875 L 345.5625 451.84375 C 343.300781 459.816406 342.070312 467.734375 342.070312 475.050781 C 342.070312 510.707031 371.246094 539.882812 406.902344 539.882812 L 490.558594 539.882812 C 526.21875 539.882812 555.390625 510.707031 555.390625 475.050781 C 555.390625 439.390625 528.203125 424.160156 490.558594 410.21875 " />
    </clipPath>
  </defs>
  <sodipodi:namedview
     id="base"
     pagecolor="#ffffff"
     bordercolor="#666666"
     borderopacity="1.0"
     inkscape:pageopacity="0.0"
     inkscape:pageshadow="2"
     inkscape:zoom="0.37774389"
     inkscape:cx="1472.7576"
     inkscape:cy="284.52012"
     inkscape:document-units="mm"
     inkscape:current-layer="layer1"
     showgrid="false"
     inkscape:window-width="1366"
     inkscape:window-height="705"
     inkscape:window-x="-8"
     inkscape:window-y="-8"
     inkscape:window-maximized="1" />
  <metadata
     id="metadata5">
    <rdf:RDF>
      <cc:Work
         rdf:about="">
        <dc:format>image/svg+xml</dc:format>
        <dc:type
           rdf:resource="http://purl.org/dc/dcmitype/StillImage" />
        <dc:title></dc:title>
      </cc:Work>
    </rdf:RDF>
  </metadata>
  <g
     inkscape:label="Layer 1"
     inkscape:groupmode="layer"
     id="layer1">
    <path
       inkscape:connector-curvature="0"
       style="fill:#9cdef0;fill-opacity:1;fill-rule:nonzero;stroke:none;stroke-width:0.44317225"
       d="M -65.162169,268.05125 H -135.89503 V -100.24874 H 364.6044 v 368.29999 h -33.41028 c -2.05293,0.18053 -4.15154,0.27148 -6.28494,0.27148 -2.13123,0 -4.22984,-0.0909 -6.28495,-0.27148 H 135.60607 c -0.0631,0.14883 -0.11743,0.29628 -0.17833,0.44511 -0.20659,-0.14883 -0.40667,-0.29628 -0.60674,-0.44511 H -65.162169"
       id="path192"
       sodipodi:nodetypes="ccccccsccccc" />
    <path
       inkscape:connector-curvature="0"
       style="fill:#fdfdee;fill-opacity:1;fill-rule:nonzero;stroke:none;stroke-width:0.35277778"
       d="m 31.984471,108.86993 h -82.208245 c 2.634809,-6.237 8.842873,-10.455176 16.070682,-10.455176 2.291676,0 4.486893,0.475424 6.493316,1.284333 2.243448,-6.184635 8.237911,-10.590223 15.264528,-10.590223 6.551193,0 12.2011513,3.840593 14.7532762,9.367901 1.4483185,-0.502984 3.0151493,-0.767567 4.6412328,-0.767567 5.009169,0 9.424405,2.567282 11.953105,6.432682 1.353231,-0.85438 2.94349,-1.4304 4.664657,-1.4304 3.988044,0 7.335298,2.59346 8.367448,6.15845"
       id="path194" />
    <path
       inkscape:connector-curvature="0"
       style="fill:#2b6163;fill-opacity:1;fill-rule:nonzero;stroke:none;stroke-width:0.35277778"
       d="m 153.17054,226.38765 c 0,4.41385 -0.44786,8.72436 -1.305,12.88741 -0.0138,0.0813 -0.0317,0.15848 -0.0496,0.23702 -1.50206,7.18923 -4.21542,13.93748 -7.92371,20.03392 -0.73312,1.20578 -1.50207,2.38401 -2.30684,3.53467 -1.20992,1.72117 -2.497,3.37895 -3.86264,4.97058 H 38.261433 c -0.03996,0.14883 -0.07441,0.29628 -0.112998,0.44511 -0.130913,-0.14883 -0.257694,-0.29628 -0.384472,-0.44511 -6.908105,-8.06152 -11.849752,-17.81114 -14.094576,-28.53917 -0.888834,-4.23747 -1.35461,-8.62652 -1.35461,-13.12443 0,-5.38262 0.666969,-10.61503 1.930633,-15.61318 7.076224,-28.10922 32.822112,-48.93689 63.499998,-48.93689 18.220432,0 34.701762,7.3477 46.566682,19.20848 8.51903,8.51627 14.65681,19.35592 17.3426,31.47025 0.073,0.32936 0.1447,0.65733 0.21085,0.9853 0.85714,4.16305 1.305,8.47356 1.305,12.88604"
       id="path196" />
    <path
       inkscape:connector-curvature="0"
       style="fill:#2b6163;fill-opacity:1;fill-rule:nonzero;stroke:none;stroke-width:0.35276678"
       d="m 152.37957,267.15803 h 124.16124 c 0.12678,0.14882 0.25356,0.29626 0.38447,0.44508 0.0386,-0.14882 0.073,-0.29626 0.113,-0.44508 1.18787,-4.86417 1.81625,-9.94744 1.81625,-15.17264 0,-4.58168 -0.48369,-9.05038 -1.40835,-13.36475 -2.30684,-10.82657 -7.36837,-20.65137 -14.42392,-28.73582 -11.99858,-13.74369 -29.76425,-22.44546 -49.59422,-22.44546 -18.06195,0 -34.41237,7.22047 -46.25247,18.8931 -3.70417,3.65433 -6.96737,7.74272 -9.70139,12.18385 -0.2012,0.32796 -0.40239,0.66005 -0.59945,0.99213 v 0.003 c -3.4575,5.8494 -6.011,12.27893 -7.46483,19.10944 -0.92467,4.31437 -1.40836,8.78307 -1.40836,13.36476 0,5.2252 0.62839,10.30846 1.81764,15.17264 h 2.56039"
       id="path198" />
    <path
       inkscape:connector-curvature="0"
       style="fill:#fdfdee;fill-opacity:1;fill-rule:nonzero;stroke:none;stroke-width:0.35277778"
       d="m -35.471878,51.094303 h -91.640912 c 2.9366,-6.952205 9.8571,-11.65407 17.91449,-11.65407 2.55351,0 5.00228,0.530546 7.23884,1.430405 2.499759,-6.89295 9.181867,-11.802897 17.014635,-11.802897 7.303604,0 13.602613,4.280186 16.446884,10.441393 1.613683,-0.56086 3.361037,-0.854382 5.173158,-0.854382 5.583809,0 10.506163,2.862185 13.32425,7.169933 1.508951,-0.953604 3.281109,-1.594393 5.200717,-1.594393 4.44555,0 8.1759,2.891127 9.327938,6.864011"
       id="path206" />
    <path
       inkscape:connector-curvature="0"
       style="fill:#fdfdee;fill-opacity:1;fill-rule:nonzero;stroke:none;stroke-width:0.35277778"
       d="M 113.23222,-0.1452914 H -13.350232 c 4.0583242,-9.6035479 13.61639691,-16.0982416 24.746811,-16.0982416 3.527777,0 6.909484,0.733116 9.997665,1.977485 3.453367,-9.522244 12.683465,-16.304948 23.502443,-16.304948 10.088616,0 18.788172,5.913162 22.718338,14.423926 2.229665,-0.775836 4.641233,-1.182357 7.146505,-1.182357 7.7115,0 14.510741,3.953591 18.403701,9.9039602 2.083593,-1.3160265 4.532365,-2.2021051 7.182329,-2.2021051 6.14054,0 11.29441,3.9949327 12.88466,9.4822805"
       id="path208" />
    <path
       inkscape:connector-curvature="0"
       style="fill:#2b6163;fill-opacity:1;fill-rule:nonzero;stroke:none;stroke-width:0.13845024"
       d="m -133.77835,239.51208 h 55.379289 c 0.05654,0.0514 0.11309,0.10232 0.171484,0.15371 0.01722,-0.0514 0.03256,-0.10231 0.0504,-0.15371 0.529822,-1.6798 0.810097,-3.43527 0.810097,-5.23976 0,-1.58225 -0.215739,-3.12549 -0.628163,-4.61542 -1.028913,-3.73888 -3.286494,-7.13181 -6.433466,-9.92372 -5.351691,-4.74628 -13.275663,-7.75138 -22.120361,-7.75138 -8.05612,0 -15.34886,2.49354 -20.62986,6.5246 -1.65217,1.262 -3.10764,2.6739 -4.32709,4.20761 -0.0897,0.11326 -0.17948,0.22794 -0.26737,0.34262 v 10e-4 c -1.54214,2.02005 -2.68107,4.24044 -3.32952,6.59931 -0.41243,1.48994 -0.62817,3.03317 -0.62817,4.61543 0,1.80448 0.28028,3.55995 0.81072,5.23976 h 1.14201"
       id="path198-4" />
    <path
       inkscape:connector-curvature="0"
       style="fill:#2b6163;fill-opacity:1;fill-rule:nonzero;stroke:none;stroke-width:0.29064918"
       d="M -78.771455,239.50942 H 33.171062 c 0.114304,0.11205 0.228607,0.22307 0.346635,0.33511 0.0348,-0.11204 0.06581,-0.22306 0.101882,-0.33511 1.070971,-3.66237 1.637512,-7.48971 1.637512,-11.42392 0,-3.44968 -0.43609,-6.81428 -1.269754,-10.0627 -2.079824,-8.15163 -6.643248,-15.54901 -13.004461,-21.63602 -10.817798,-10.34802 -26.8351462,-16.89983 -44.713646,-16.89983 -16.284472,0 -31.025845,5.43649 -41.70076,14.22515 -3.339642,2.75145 -6.28171,5.82972 -8.746674,9.17357 -0.181401,0.24693 -0.362792,0.49697 -0.540459,0.747 v 0.002 c -3.117247,4.4042 -5.419457,9.24517 -6.730215,14.38805 -0.833673,3.24842 -1.269763,6.61303 -1.269763,10.06272 0,3.9342 0.566549,7.76153 1.638766,11.4239 h 2.308422"
       id="path198-7" />
    <path
       inkscape:connector-curvature="0"
       style="fill:#2b6163;fill-opacity:1;fill-rule:nonzero;stroke:none;stroke-width:0.23133083"
       d="m 270.23432,239.24287 h 88.27585 c 0.09,0.09 0.18026,0.1792 0.27336,0.26921 0.0273,-0.09 0.052,-0.17918 0.0803,-0.26921 0.84454,-2.942 1.2913,-6.01652 1.2913,-9.17691 0,-2.77114 -0.34389,-5.47397 -1.0013,-8.08345 -1.64011,-6.54827 -5.23874,-12.49064 -10.25508,-17.38038 -8.53072,-8.31264 -21.1617,-13.57576 -35.26036,-13.57576 -12.84166,0 -24.46644,4.36718 -32.88447,11.42718 -2.6336,2.21026 -4.95366,4.68307 -6.89749,7.3692 -0.14298,0.19837 -0.28609,0.39922 -0.4262,0.60007 v 0.002 c -2.4582,3.53792 -4.27368,7.42671 -5.30732,11.55803 -0.65743,2.60949 -1.00132,5.31229 -1.00132,8.08346 0,3.16037 0.44678,6.23489 1.2923,9.17691 h 1.8204"
       id="path198-4-3" />
    <path
       inkscape:connector-curvature="0"
       style="fill:#70c56e;fill-opacity:1;fill-rule:nonzero;stroke:none;stroke-width:0.44317225"
       d="M -135.89503,268.05125 H 364.6044 v -28.53917 h -500.49943 z m 0,0"
       id="path200" />
    <path
       inkscape:connector-curvature="0"
       style="fill:#4c9451;fill-opacity:1;fill-rule:nonzero;stroke:none;stroke-width:0.35277778"
       d="m 348.98511,250.88461 h -61.19178 c -2.33853,0 -4.23334,-1.89481 -4.23334,-4.23334 0,-2.33853 1.89481,-4.23333 4.23334,-4.23333 h 61.19178 c 2.33853,0 4.23333,1.8948 4.23333,4.23333 0,2.33853 -1.8948,4.23334 -4.23333,4.23334"
       id="path204" />
    <path
       inkscape:connector-curvature="0"
       style="fill:#4c2e42;fill-opacity:1;fill-rule:nonzero;stroke:none;stroke-width:0.35277778"
       d="m 347.23933,141.12731 c 0,1.00735 -0.0469,2.0643 -0.15158,3.04822 -1.3491,13.12306 -11.4763,23.75876 -24.48223,26.02701 -1.69085,0.29903 -3.33623,0.46164 -5.11252,0.46164 -1.57648,0 -3.00137,-0.11024 -4.53237,-0.34451 v -3.48644 c 1.531,0.27148 2.95589,0.41204 4.53237,0.41204 1.78593,0 3.47265,-0.17777 5.16351,-0.51539 10.23193,-2.02434 18.30034,-9.96597 20.52312,-19.99533 0.39963,-1.79007 0.58291,-3.59255 0.58291,-5.60724 h 3.47679"
       id="path210" />
    <path
       inkscape:connector-curvature="0"
       style="fill:#4c2e42;fill-opacity:1;fill-rule:nonzero;stroke:none;stroke-width:0.35277778"
       d="m 319.43741,210.84364 c -1.02388,0.0675 -2.04088,0.0882 -3.04409,0.051 -13.36008,-0.45338 -24.7661,-9.71517 -27.9287,-22.36694 -0.41616,-1.64538 -0.68488,-3.3569 -0.80339,-5.10563 -0.10473,-1.55167 -0.0854,-3.08543 0.051,-4.58749 l 3.5264,-0.23289 c -0.17502,1.49655 -0.21222,3.03995 -0.10749,4.59162 0.11989,1.75838 0.41479,3.45888 0.86954,5.10012 2.72989,9.93841 11.25168,17.37982 21.54287,18.8998 1.83693,0.27285 3.73724,0.35415 5.66236,0.22737 l 0.23151,3.42305"
       id="path212" />
    <path
       inkscape:connector-curvature="0"
       style="fill:#4c2e42;fill-opacity:1;fill-rule:nonzero;stroke:none;stroke-width:0.42893684"
       d="m 322.65926,127.17083 v 121.20245 h -9.69863 V 116.74009 l 9.69863,10.43074"
       id="path214" />
    <path
       inkscape:connector-curvature="0"
       style="fill:#71c837;fill-opacity:1;fill-rule:nonzero;stroke:none;stroke-width:0.35277778"
       d="m 361.8865,110.04696 c 0,15.65038 -7.74458,29.52309 -19.66874,38.07106 -1.18236,0.84474 -2.40192,1.63849 -3.65456,2.3785 -5.70645,3.35552 -12.18048,5.56865 -19.10374,6.3183 -1.73082,0.19155 -3.48782,0.28801 -5.27238,0.28801 -1.30776,0 -2.60587,-0.0524 -3.88606,-0.1571 -7.04729,-0.5581 -13.66325,-2.63205 -19.51027,-5.89111 -1.2802,-0.70556 -2.5163,-1.47312 -3.71794,-2.29994 -12.43404,-8.48734 -20.57687,-22.65633 -20.57687,-38.70772 0,-25.99393 21.35546,-47.064135 47.69114,-47.064135 26.34534,0 47.69942,21.070205 47.69942,47.064135"
       id="path216" />
    <path
       inkscape:connector-curvature="0"
       style="fill:#3aa687;fill-opacity:1;fill-rule:nonzero;stroke:none;stroke-width:0.35277778"
       d="m 307.04885,149.61182 c -1.43316,-4.80523 -4.00458,-9.12951 -7.40558,-12.66831 -0.82407,-0.85714 -1.7005,-1.66881 -2.6169,-2.42672 -5.50664,-4.5682 -12.60767,-7.32014 -20.36602,-7.32014 -0.84612,0 -1.68672,0.0317 -2.51905,0.0992 -0.0661,0.003 -0.13367,0.01 -0.2012,0.0165 -0.38447,0.0289 -0.76894,0.0717 -1.14928,0.11713 -5.70784,0.68489 -10.94714,2.8677 -15.30036,6.14192 v 13.53234 c -0.0951,0.31006 -0.0923,0.63114 0,0.92466 v 35.28742 c 0.38172,0.29352 0.76895,0.57189 1.16444,0.84061 0.79651,0.54983 1.6192,1.05833 2.46945,1.52686 3.2315,1.79972 6.81577,3.05925 10.6288,3.64491 h 0.004 c 0.71934,0.10887 1.44556,0.19706 2.18281,0.25356 0.0469,0.007 0.0923,0.011 0.13781,0.0138 0.85025,0.0675 1.71428,0.10197 2.58244,0.10197 1.06936,0 2.12356,-0.0524 3.16397,-0.15847 0.0606,-0.003 0.11989,-0.007 0.18053,-0.0179 0.0524,-0.003 0.10197,-0.007 0.15572,-0.0138 0.71933,-0.0772 1.43178,-0.17914 2.13733,-0.30592 h 0.0317 c 0.72622,-0.12816 1.42213,-0.2825 2.12769,-0.45889 0.27423,-0.0675 0.54708,-0.14193 0.81442,-0.21497 0.86127,-0.24116 1.70463,-0.51263 2.5287,-0.82269 1.76113,-0.64906 3.44785,-1.45383 5.045,-2.39227 0.80891,-0.47956 1.59852,-0.99081 2.36058,-1.53376 h 0.003 l 0.0648,-0.0455 c 0.59944,-0.43132 1.18511,-0.88194 1.75286,-1.35599 1.48828,-1.22645 2.85668,-2.59622 4.08864,-4.07347 4.25401,-5.08359 6.90397,-11.51902 7.19336,-18.54978 0.0179,-0.42994 0.0276,-0.86403 0.0276,-1.30086 0,-3.07028 -0.44786,-6.03719 -1.28708,-8.8415"
       id="path218" />
    <path
       inkscape:connector-curvature="0"
       style="fill:#85d49e;fill-opacity:1;fill-rule:nonzero;stroke:none;stroke-width:0.35277778"
       d="m 314.54951,88.23951 c -1.53789,0.31695 -3.05787,-0.66559 -3.37895,-2.18144 l -1.74873,-8.27236 c -0.32109,-1.51722 0.67386,-3.01653 2.21175,-3.33347 1.53651,-0.31695 3.05787,0.66559 3.37757,2.18281 l 1.75011,8.27236 c 0.3197,1.51584 -0.67524,3.01653 -2.21175,3.3321"
       id="path234" />
    <path
       inkscape:connector-curvature="0"
       style="fill:#85d49e;fill-opacity:1;fill-rule:nonzero;stroke:none;stroke-width:0.35277778"
       d="m 343.09144,79.4366 c -0.92053,1.25539 -2.71336,1.53927 -3.98667,0.63114 l -6.9398,-4.95129 c -1.27331,-0.90813 -1.56132,-2.67753 -0.64079,-3.93292 0.91915,-1.255393 2.71336,-1.540649 3.98529,-0.632522 l 6.94118,4.951292 c 1.2733,0.90813 1.56131,2.67891 0.64079,3.9343"
       id="path236" />
    <path
       inkscape:connector-curvature="0"
       style="fill:#85d49e;fill-opacity:1;fill-rule:nonzero;stroke:none;stroke-width:0.35277778"
       d="m 288.47427,113.72081 c -0.65732,1.40698 -2.36196,2.0271 -3.78823,1.37804 l -7.77764,-3.53743 c -1.42627,-0.64767 -2.05604,-2.33026 -1.39733,-3.73724 0.65732,-1.40697 2.36057,-2.02709 3.78684,-1.37803 l 7.77903,3.53604 c 1.42627,0.64906 2.05465,2.33165 1.39733,3.73862"
       id="path238" />
    <path
       inkscape:connector-curvature="0"
       style="fill:#85d49e;fill-opacity:1;fill-rule:nonzero;stroke:none;stroke-width:0.35277778"
       d="m 284.04526,87.50915 -0.073,-0.0303 c -1.01975,-0.4093 -1.51446,-1.56823 -1.0983,-2.57557 l 2.19522,-5.31096 c 0.41617,-1.00597 1.59163,-1.4938 2.61138,-1.08314 l 0.0717,0.0289 c 1.02112,0.41065 1.51584,1.56958 1.09829,2.57555 l -2.19383,5.31097 c -0.41617,1.00735 -1.59164,1.49517 -2.61138,1.08452"
       id="path240" />
    <path
       inkscape:connector-curvature="0"
       style="fill:#85d49e;fill-opacity:1;fill-rule:nonzero;stroke:none;stroke-width:0.35277778"
       d="m 312.96063,116.74009 -0.0551,-0.0551 c -0.77859,-0.76757 -0.77859,-2.02572 0,-2.79466 l 4.11069,-4.05557 c 0.77859,-0.76756 2.05328,-0.76756 2.83324,0 l 0.0551,0.0551 c 0.77859,0.76895 0.77859,2.02572 0,2.79467 l -4.11068,4.05556 c -0.77859,0.76895 -2.05328,0.76895 -2.83325,0"
       id="path242" />
    <path
       inkscape:connector-curvature="0"
       style="fill:#85d49e;fill-opacity:1;fill-rule:nonzero;stroke:none;stroke-width:0.35277778"
       d="m 337.65369,104.60371 -0.0124,-0.25907 c -0.051,-1.03491 0.76618,-1.92374 1.81625,-1.97473 l 5.10976,-0.24529 c 1.05145,-0.051 1.95131,0.75517 2.00229,1.79145 l 0.0124,0.25769 c 0.0524,1.03629 -0.76481,1.92512 -1.81487,1.97611 l -5.11115,0.24529 c -1.05006,0.051 -1.9513,-0.75654 -2.00229,-1.79145"
       id="path244" />
    <path
       inkscape:connector-curvature="0"
       style="fill:#85d49e;fill-opacity:1;fill-rule:nonzero;stroke:none;stroke-width:0.35277778"
       d="m 336.91507,130.70927 -0.20947,-0.15572 c -0.83784,-0.62563 -1.00596,-1.8135 -0.37206,-2.64032 l 3.0868,-4.02801 c 0.6339,-0.82682 1.8383,-0.99219 2.67753,-0.36656 l 0.20808,0.15572 c 0.83923,0.62563 1.00597,1.81488 0.37207,2.6417 l -3.08542,4.02663 c -0.6339,0.8282 -1.83969,0.99218 -2.67753,0.36656"
       id="path246" />
    <path
       inkscape:connector-curvature="0"
       style="fill:#85d49e;fill-opacity:1;fill-rule:nonzero;stroke:none;stroke-width:0.35277778"
       d="m 321.59955,147.83552 -0.20808,-0.15571 c -0.83923,-0.62563 -1.00597,-1.81488 -0.37207,-2.64171 l 3.08542,-4.028 c 0.6339,-0.82682 1.83969,-0.99219 2.67753,-0.36656 l 0.20947,0.15572 c 0.83784,0.62563 1.00596,1.81488 0.37206,2.6417 l -3.0868,4.02801 c -0.6339,0.82682 -1.8383,0.99218 -2.67753,0.36655"
       id="path248" />
    <path
       inkscape:connector-curvature="0"
       style="fill:#85d49e;fill-opacity:1;fill-rule:nonzero;stroke:none;stroke-width:0.35277778"
       d="m 295.15362,100.00382 0.12127,-0.23013 c 0.48644,-0.91916 1.64813,-1.27882 2.57831,-0.79789 l 4.5365,2.33578 c 0.93155,0.48093 1.29673,1.62608 0.81028,2.54523 l -0.12126,0.22876 c -0.48645,0.91915 -1.64676,1.27882 -2.57969,0.79926 l -4.53512,-2.33715 c -0.93294,-0.47956 -1.29674,-1.62471 -0.81029,-2.54386"
       id="path252" />
    <path
       inkscape:connector-curvature="0"
       style="fill:#3aa687;fill-opacity:1;fill-rule:nonzero;stroke:none;stroke-width:0.35277778"
       d="m 245.64746,149.14878 c 1.43316,-4.80523 4.00458,-9.12951 7.40558,-12.66831 0.82407,-0.85714 1.7005,-1.66881 2.61689,-2.42672 5.50665,-4.5682 12.60768,-7.32014 20.36603,-7.32014 0.84612,0 1.68672,0.0317 2.51905,0.0992 0.0661,0.003 0.13367,0.01 0.2012,0.0165 0.38447,0.0289 0.76894,0.0717 1.14928,0.11713 5.70784,0.68489 10.94714,2.8677 15.30036,6.14192 v 13.53234 c 0.0951,0.31006 0.0923,0.63114 0,0.92466 v 35.28742 c -0.38172,0.29352 -0.76895,0.5719 -1.16444,0.84061 -0.79651,0.54983 -1.6192,1.05833 -2.46945,1.52686 -3.2315,1.79972 -6.81577,3.05925 -10.6288,3.64491 h -0.004 c -0.71934,0.10888 -1.44556,0.19706 -2.18281,0.25357 -0.0469,0.007 -0.0923,0.011 -0.13781,0.0138 -0.85025,0.0675 -1.71428,0.10197 -2.58244,0.10197 -1.06936,0 -2.12356,-0.0524 -3.16397,-0.15847 -0.0606,-0.003 -0.11989,-0.007 -0.18053,-0.0179 -0.0524,-0.003 -0.10197,-0.007 -0.15572,-0.0138 -0.71933,-0.0772 -1.43178,-0.17915 -2.13733,-0.30592 h -0.0317 c -0.72622,-0.12816 -1.42213,-0.2825 -2.12769,-0.45889 -0.27423,-0.0675 -0.54708,-0.14193 -0.81442,-0.21498 -0.86127,-0.24115 -1.70463,-0.51263 -2.5287,-0.82269 -1.76113,-0.64906 -3.44785,-1.45383 -5.045,-2.39227 -0.80891,-0.47956 -1.59852,-0.9908 -2.36058,-1.53376 h -0.003 l -0.0648,-0.0455 c -0.59945,-0.43132 -1.18512,-0.88194 -1.75286,-1.35599 -1.48828,-1.22645 -2.85668,-2.59622 -4.08865,-4.07347 -4.254,-5.08359 -6.90397,-11.51902 -7.19335,-18.54978 -0.0179,-0.42994 -0.0275,-0.86403 -0.0275,-1.30086 0,-3.07028 0.44786,-6.03719 1.28708,-8.8415"
       id="path218-1" />
    <path
       inkscape:connector-curvature="0"
       style="fill:#85d49e;fill-opacity:1;fill-rule:nonzero;stroke:none;stroke-width:0.35277778"
       d="m 296.26708,128.69457 0.12126,-0.22875 c 0.48645,-0.92053 1.64676,-1.27882 2.57831,-0.79926 l 4.53651,2.33715 c 0.93155,0.47956 1.29673,1.62471 0.81028,2.54386 l -0.12265,0.22875 c -0.48644,0.91915 -1.64675,1.27882 -2.57831,0.79927 l -4.53649,-2.33716 c -0.93156,-0.47956 -1.29536,-1.6247 -0.80891,-2.54386"
       id="path250" />
    <path
       inkscape:connector-curvature="0"
       style="fill:#70c56e;fill-opacity:1;fill-rule:nonzero;stroke:none;stroke-width:0.35277778"
       d="m 279.13117,149.89707 c -1.22921,0.25218 -2.44326,-0.53192 -2.69958,-1.7446 l -1.39733,-6.60907 c -0.25631,-1.21129 0.53882,-2.41019 1.76665,-2.66237 1.22783,-0.25356 2.44326,0.53055 2.69958,1.74322 l 1.39733,6.60907 c 0.25631,1.21267 -0.53882,2.41019 -1.76665,2.66375"
       id="path220" />
    <path
       inkscape:connector-curvature="0"
       style="fill:#70c56e;fill-opacity:1;fill-rule:nonzero;stroke:none;stroke-width:0.35277778"
       d="m 298.06679,143.82681 c -0.73587,1.00321 -2.16903,1.23059 -3.18602,0.50574 l -5.54523,-3.95635 c -1.01699,-0.72485 -1.24712,-2.14009 -0.51125,-3.1433 0.7345,-1.00184 2.16766,-1.23059 3.18465,-0.50436 l 5.54522,3.95634 c 1.017,0.72485 1.24713,2.13872 0.51263,3.14193"
       id="path222" />
    <path
       inkscape:connector-curvature="0"
       style="fill:#70c56e;fill-opacity:1;fill-rule:nonzero;stroke:none;stroke-width:0.35277778"
       d="m 262.94749,143.93981 -1.75286,4.24022 c -0.33073,0.80478 -1.26918,1.19614 -2.08498,0.86817 l -0.0593,-0.0248 c -0.45889,-0.18742 -0.78686,-0.56087 -0.92466,-0.99495 -0.0923,-0.29352 -0.0951,-0.61461 0,-0.92467 0.0138,-0.0455 0.0317,-0.0923 0.0496,-0.1378 l 1.75287,-4.24298 c 0.33211,-0.80477 1.27055,-1.19338 2.08497,-0.86816 l 0.0606,0.0248 c 0.81443,0.32797 1.20992,1.25539 0.87368,2.06017"
       id="path224" />
    <path
       inkscape:connector-curvature="0"
       style="fill:#70c56e;fill-opacity:1;fill-rule:nonzero;stroke:none;stroke-width:0.35277778"
       d="m 277.33283,167.56352 -0.0441,-0.0441 c -0.62287,-0.61322 -0.62287,-1.61782 0,-2.23242 l 3.28387,-3.23977 c 0.62287,-0.6146 1.64124,-0.6146 2.26274,0 l 0.0441,0.0427 c 0.62287,0.61461 0.62287,1.6192 0,2.2338 l -3.28387,3.23977 c -0.62287,0.6146 -1.63987,0.6146 -2.26274,0"
       id="path226" />
    <path
       inkscape:connector-curvature="0"
       style="fill:#70c56e;fill-opacity:1;fill-rule:nonzero;stroke:none;stroke-width:0.35277778"
       d="m 292.95427,159.30907 -0.011,-0.20533 c -0.0413,-0.8282 0.61185,-1.53927 1.45108,-1.57923 l 4.08451,-0.19568 c 0.83784,-0.04 1.55856,0.60358 1.59852,1.43178 l 0.01,0.20533 c 0.0413,0.8282 -0.61185,1.53789 -1.4497,1.57785 l -4.0845,0.19706 c -0.83785,0.04 -1.55856,-0.60358 -1.59853,-1.43178"
       id="path228" />
    <path
       inkscape:connector-curvature="0"
       style="fill:#70c56e;fill-opacity:1;fill-rule:nonzero;stroke:none;stroke-width:0.35277778"
       d="m 290.03559,175.54236 -0.16812,-0.12402 c -0.66973,-0.50023 -0.8034,-1.4497 -0.29628,-2.11116 l 2.46531,-3.21772 c 0.50712,-0.66146 1.46899,-0.79237 2.13871,-0.29352 l 0.16812,0.1254 c 0.66973,0.49885 0.8034,1.4497 0.29628,2.10978 l -2.46531,3.21772 c -0.50712,0.66145 -1.46899,0.79237 -2.13871,0.29352"
       id="path230" />
    <path
       inkscape:connector-curvature="0"
       style="fill:#70c56e;fill-opacity:1;fill-rule:nonzero;stroke:none;stroke-width:0.35277778"
       d="m 266.56898,174.34484 0.0978,-0.18328 c 0.38722,-0.73449 1.31602,-1.02112 2.06016,-0.63803 l 3.62424,1.86725 c 0.74414,0.38309 1.03491,1.29811 0.6463,2.0326 l -0.0965,0.18328 c -0.38861,0.7345 -1.31603,1.0225 -2.06154,0.63803 l -3.62287,-1.86724 c -0.74552,-0.3831 -1.03628,-1.29811 -0.64767,-2.03261"
       id="path232" />
    <path
       inkscape:connector-curvature="0"
       style="fill:#fdfdee;fill-opacity:1;fill-rule:nonzero;stroke:none;stroke-width:0.75290424"
       d="M 362.43982,27.922623 H 145.71657 c 6.9483,-25.5491632 23.31279,-42.827567 42.36931,-42.827567 6.03994,0 11.8298,1.950373 17.11711,5.2608773 5.91255,-25.3328643 21.71552,-43.3774873 40.23879,-43.3774873 17.27285,0 32.16746,15.731304 38.89633,38.373238 3.81744,-2.064024 7.9463,-3.145528 12.23562,-3.145528 13.20294,0 24.84398,10.5180865 31.50917,26.3483733 3.56735,-3.5011393 7.75993,-5.8584518 12.29696,-5.8584518 10.51327,0 19.33728,10.6280705 22.05996,25.2265455"
       id="path208-0" />
    <path
       inkscape:connector-curvature="0"
       style="fill:#4c9451;fill-opacity:1;fill-rule:nonzero;stroke:none;stroke-width:0.14166956"
       d="m 199.33589,245.0382 h 24.57358 c 0.93911,0 1.70004,-0.76092 1.70004,-1.70004 0,-0.93911 -0.76093,-1.70003 -1.70004,-1.70003 h -24.57358 c -0.93911,0 -1.70004,0.76092 -1.70004,1.70003 0,0.93912 0.76093,1.70004 1.70004,1.70004"
       id="path204-6" />
    <path
       inkscape:connector-curvature="0"
       style="fill:#4c2e42;fill-opacity:1;fill-rule:nonzero;stroke:none;stroke-width:0.14166956"
       d="m 200.03697,200.96153 c 0,0.40454 0.0188,0.829 0.0609,1.22412 0.54177,5.27 4.60868,9.54111 9.83164,10.452 0.67902,0.12009 1.33978,0.18539 2.0531,0.18539 0.63309,0 1.2053,-0.0443 1.82013,-0.13835 v -1.40009 c -0.61483,0.10902 -1.18704,0.16547 -1.82013,0.16547 -0.71719,0 -1.39455,-0.0714 -2.07357,-0.20698 -4.10897,-0.81294 -7.34911,-4.00217 -8.24174,-8.02978 -0.16048,-0.71886 -0.23408,-1.44271 -0.23408,-2.25178 H 200.037"
       id="path210-0" />
    <path
       inkscape:connector-curvature="0"
       style="fill:#4c2e42;fill-opacity:1;fill-rule:nonzero;stroke:none;stroke-width:0.14166956"
       d="m 211.20175,228.95843 c 0.41116,0.0271 0.81958,0.0354 1.22245,0.0205 5.36518,-0.18207 9.94564,-3.90145 11.21569,-8.98218 0.16712,-0.66076 0.27503,-1.34807 0.32262,-2.05033 0.0421,-0.62313 0.0343,-1.23906 -0.0205,-1.84226 l -1.41614,-0.0935 c 0.0703,0.60099 0.0852,1.2208 0.0432,1.84392 -0.0482,0.70613 -0.16657,1.38903 -0.34919,2.04812 -1.09628,3.9911 -4.51848,6.97944 -8.65125,7.58984 -0.73768,0.10957 -1.50081,0.14222 -2.27391,0.0913 l -0.093,1.37465"
       id="path212-9" />
    <path
       inkscape:connector-curvature="0"
       style="fill:#4c2e42;fill-opacity:1;fill-rule:nonzero;stroke:none;stroke-width:0.17225374"
       d="m 209.9079,195.35685 v 48.67285 h 3.89481 v -52.86166 l -3.89481,4.18881"
       id="path214-5" />
    <path
       inkscape:connector-curvature="0"
       style="fill:#71c837;fill-opacity:1;fill-rule:nonzero;stroke:none;stroke-width:0.14166956"
       d="m 194.15491,188.48019 c 0,6.28493 3.11009,11.85597 7.89863,15.2887 0.47482,0.33923 0.96457,0.65798 1.46761,0.95516 2.29162,1.34752 4.89147,2.23628 7.67174,2.53732 0.69507,0.0769 1.40065,0.11566 2.1173,0.11566 0.52517,0 1.04647,-0.021 1.56057,-0.0631 2.83008,-0.22412 5.48693,-1.05698 7.83499,-2.36577 0.51411,-0.28334 1.01051,-0.59157 1.49307,-0.92361 4.99329,-3.40838 8.26332,-9.0984 8.26332,-15.54437 0,-10.43871 -8.576,-18.90015 -19.15195,-18.90015 -10.57984,0 -19.15528,8.46144 -19.15528,18.90015"
       id="path216-4" />
    <path
       inkscape:connector-curvature="0"
       style="fill:#3aa687;fill-opacity:1;fill-rule:nonzero;stroke:none;stroke-width:0.14166956"
       d="m 216.17678,204.36877 c 0.57553,-1.9297 1.60817,-3.66626 2.97396,-5.08738 0.33093,-0.34421 0.68288,-0.67016 1.05089,-0.97453 2.21138,-1.83451 5.06303,-2.93964 8.17865,-2.93964 0.33979,0 0.67736,0.0127 1.01161,0.0398 0.0265,0.001 0.0537,0.004 0.0808,0.007 0.1544,0.0116 0.30879,0.0288 0.46153,0.0471 2.29217,0.27503 4.39618,1.15161 6.14436,2.46649 v 5.43435 c 0.0382,0.12452 0.0371,0.25346 0,0.37133 v 14.17082 c -0.15329,0.11787 -0.30879,0.22966 -0.46761,0.33758 -0.31987,0.2208 -0.65025,0.42501 -0.9917,0.61316 -1.29771,0.72274 -2.73709,1.22854 -4.26834,1.46373 h -0.001 c -0.28888,0.0437 -0.58052,0.0791 -0.87658,0.10182 -0.0188,0.003 -0.0371,0.004 -0.0553,0.006 -0.34145,0.0271 -0.68843,0.0409 -1.03707,0.0409 -0.42944,0 -0.85278,-0.021 -1.2706,-0.0636 -0.0244,-10e-4 -0.0482,-0.003 -0.0725,-0.007 -0.021,-0.001 -0.0409,-0.003 -0.0625,-0.006 -0.28887,-0.031 -0.57498,-0.0719 -0.85831,-0.12285 h -0.0127 c -0.29164,-0.0515 -0.57111,-0.11345 -0.85445,-0.18428 -0.11013,-0.0271 -0.2197,-0.057 -0.32706,-0.0863 -0.34587,-0.0968 -0.68454,-0.20587 -1.01548,-0.33038 -0.70724,-0.26065 -1.3846,-0.58384 -2.02599,-0.9607 -0.32484,-0.19258 -0.64193,-0.39789 -0.94796,-0.61593 h -10e-4 l -0.026,-0.0182 c -0.24072,-0.17321 -0.47592,-0.35417 -0.70392,-0.54454 -0.59767,-0.49253 -1.14719,-1.0426 -1.64192,-1.63583 -1.70835,-2.04149 -2.77252,-4.62585 -2.88874,-7.44928 -0.007,-0.17266 -0.0111,-0.34698 -0.0111,-0.5224 0,-1.23298 0.17985,-2.42444 0.51687,-3.5506"
       id="path218-7" />
    <path
       inkscape:connector-curvature="0"
       style="fill:#85d49e;fill-opacity:1;fill-rule:nonzero;stroke:none;stroke-width:0.14166956"
       d="m 213.16464,179.72269 c 0.61759,0.12729 1.22799,-0.26729 1.35693,-0.87603 l 0.70226,-3.32204 c 0.12894,-0.60928 -0.27061,-1.21138 -0.88821,-1.33866 -0.61703,-0.12728 -1.22798,0.26729 -1.35637,0.87658 l -0.70281,3.32204 c -0.12839,0.60874 0.27116,1.21139 0.8882,1.33811"
       id="path234-4" />
    <path
       inkscape:connector-curvature="0"
       style="fill:#85d49e;fill-opacity:1;fill-rule:nonzero;stroke:none;stroke-width:0.14166956"
       d="m 201.70268,176.1876 c 0.36967,0.50414 1.08965,0.61814 1.60099,0.25345 l 2.7869,-1.98836 c 0.51134,-0.36468 0.627,-1.07524 0.25733,-1.57938 -0.36912,-0.50415 -1.08964,-0.6187 -1.60042,-0.25402 l -2.78746,1.98836 c -0.51134,0.36468 -0.627,1.0758 -0.25734,1.57995"
       id="path236-2" />
    <path
       inkscape:connector-curvature="0"
       style="fill:#85d49e;fill-opacity:1;fill-rule:nonzero;stroke:none;stroke-width:0.14166956"
       d="m 223.63601,189.95555 c 0.26397,0.56502 0.94853,0.81405 1.52129,0.5534 l 3.12337,-1.42057 c 0.57276,-0.2601 0.82567,-0.93579 0.56114,-1.50082 -0.26396,-0.56501 -0.94796,-0.81404 -1.52073,-0.55339 l -3.12392,1.42002 c -0.57277,0.26065 -0.82512,0.93634 -0.56115,1.50136"
       id="path238-6" />
    <path
       inkscape:connector-curvature="0"
       style="fill:#85d49e;fill-opacity:1;fill-rule:nonzero;stroke:none;stroke-width:0.14166956"
       d="m 225.41463,179.42939 0.0293,-0.0121 c 0.40951,-0.16437 0.60818,-0.62978 0.44105,-1.0343 l -0.88156,-2.1328 c -0.16713,-0.40398 -0.63917,-0.59988 -1.04868,-0.43497 l -0.0288,0.0116 c -0.41006,0.16491 -0.60873,0.63032 -0.44105,1.0343 l 0.881,2.13279 c 0.16713,0.40454 0.63918,0.60044 1.04869,0.43553"
       id="path240-5" />
    <path
       inkscape:connector-curvature="0"
       style="fill:#85d49e;fill-opacity:1;fill-rule:nonzero;stroke:none;stroke-width:0.14166956"
       d="m 213.80271,191.16804 0.0221,-0.0221 c 0.31267,-0.30824 0.31267,-0.81349 0,-1.12228 l -1.65078,-1.62865 c -0.31267,-0.30824 -0.82457,-0.30824 -1.13779,0 l -0.0221,0.0221 c -0.31266,0.30879 -0.31266,0.81349 0,1.12229 l 1.65078,1.62864 c 0.31267,0.3088 0.82457,0.3088 1.13779,0"
       id="path242-6" />
    <path
       inkscape:connector-curvature="0"
       style="fill:#85d49e;fill-opacity:1;fill-rule:nonzero;stroke:none;stroke-width:0.14166956"
       d="m 203.88639,186.29428 0.005,-0.10404 c 0.0205,-0.4156 -0.30769,-0.77254 -0.72938,-0.79302 l -2.05199,-0.0985 c -0.42224,-0.0205 -0.78361,0.30326 -0.80409,0.71941 l -0.005,0.10349 c -0.021,0.41615 0.30714,0.77309 0.72883,0.79357 l 2.05255,0.0985 c 0.42168,0.0205 0.78361,-0.30381 0.80408,-0.71941"
       id="path244-2" />
    <path
       inkscape:connector-curvature="0"
       style="fill:#85d49e;fill-opacity:1;fill-rule:nonzero;stroke:none;stroke-width:0.14166956"
       d="m 204.18302,196.77783 0.0841,-0.0625 c 0.33647,-0.25124 0.40398,-0.72827 0.14942,-1.06031 l -1.23961,-1.61757 c -0.25457,-0.33204 -0.73823,-0.39845 -1.07525,-0.14721 l -0.0836,0.0625 c -0.33702,0.25124 -0.40398,0.72882 -0.14942,1.06085 l 1.23905,1.61703 c 0.25456,0.33259 0.73879,0.39845 1.07526,0.14721"
       id="path246-9" />
    <path
       inkscape:connector-curvature="0"
       style="fill:#85d49e;fill-opacity:1;fill-rule:nonzero;stroke:none;stroke-width:0.14166956"
       d="m 210.33347,203.65544 0.0836,-0.0625 c 0.33702,-0.25124 0.40398,-0.72883 0.14941,-1.06086 l -1.23905,-1.61758 c -0.25456,-0.33204 -0.73879,-0.39845 -1.07525,-0.14721 l -0.0841,0.0625 c -0.33646,0.25124 -0.40398,0.72882 -0.14941,1.06086 l 1.2396,1.61758 c 0.25457,0.33204 0.73823,0.39844 1.07526,0.1472"
       id="path248-9" />
    <path
       inkscape:connector-curvature="0"
       style="fill:#85d49e;fill-opacity:1;fill-rule:nonzero;stroke:none;stroke-width:0.14166956"
       d="m 220.9537,184.44704 -0.0487,-0.0924 c -0.19535,-0.36911 -0.66186,-0.51354 -1.03541,-0.32041 l -1.82178,0.93801 c -0.37409,0.19313 -0.52075,0.653 -0.32539,1.02211 l 0.0487,0.0919 c 0.19535,0.36912 0.66131,0.51355 1.03596,0.32097 l 1.82123,-0.93856 c 0.37465,-0.19258 0.52075,-0.65246 0.3254,-1.02157"
       id="path252-0" />
    <path
       inkscape:connector-curvature="0"
       style="fill:#3aa687;fill-opacity:1;fill-rule:nonzero;stroke:none;stroke-width:0.14166956"
       d="m 240.83453,204.18282 c -0.57553,-1.9297 -1.60817,-3.66626 -2.97395,-5.08737 -0.33094,-0.34422 -0.68289,-0.67017 -1.0509,-0.97454 -2.21138,-1.8345 -5.06303,-2.93964 -8.17865,-2.93964 -0.33979,0 -0.67736,0.0127 -1.01161,0.0398 -0.0266,0.001 -0.0537,0.004 -0.0808,0.007 -0.1544,0.0116 -0.3088,0.0288 -0.46153,0.0471 -2.29217,0.27504 -4.39619,1.15162 -6.14436,2.46649 v 5.43436 c -0.0382,0.12451 -0.0371,0.25345 0,0.37133 v 14.17082 c 0.15329,0.11788 0.30879,0.22966 0.46762,0.33757 0.31986,0.22081 0.65024,0.42501 0.99168,0.61316 1.29772,0.72274 2.7371,1.22855 4.26835,1.46374 h 0.001 c 0.28887,0.0437 0.58051,0.0791 0.87658,0.10183 0.0188,0.003 0.0371,0.004 0.0553,0.006 0.34145,0.0271 0.68843,0.041 1.03707,0.041 0.42944,0 0.85279,-0.021 1.2706,-0.0636 0.0244,-0.001 0.0482,-0.003 0.0725,-0.007 0.021,-0.001 0.041,-0.003 0.0625,-0.006 0.28887,-0.031 0.57498,-0.0719 0.85832,-0.12285 h 0.0127 c 0.29164,-0.0515 0.57111,-0.11345 0.85445,-0.18429 0.11012,-0.0271 0.21969,-0.057 0.32705,-0.0863 0.34587,-0.0968 0.68455,-0.20586 1.01548,-0.33037 0.70725,-0.26065 1.3846,-0.58384 2.02599,-0.9607 0.32485,-0.19258 0.64194,-0.39789 0.94797,-0.61593 h 0.001 l 0.026,-0.0182 c 0.24073,-0.17321 0.47592,-0.35418 0.70392,-0.54455 0.59766,-0.49252 1.14718,-1.0426 1.64193,-1.63583 1.70833,-2.04149 2.77252,-4.62585 2.88872,-7.44928 0.007,-0.17266 0.011,-0.34698 0.011,-0.5224 0,-1.23298 -0.17986,-2.42443 -0.51687,-3.5506"
       id="path218-1-9" />
    <path
       inkscape:connector-curvature="0"
       style="fill:#85d49e;fill-opacity:1;fill-rule:nonzero;stroke:none;stroke-width:0.14166956"
       d="m 220.50655,195.96876 -0.0487,-0.0919 c -0.19535,-0.36967 -0.66131,-0.51356 -1.03541,-0.32097 l -1.82178,0.93855 c -0.37409,0.19259 -0.52075,0.65246 -0.3254,1.02158 l 0.0493,0.0919 c 0.19535,0.36911 0.66131,0.51355 1.03541,0.32097 l 1.82178,-0.93856 c 0.37409,-0.19259 0.52019,-0.65245 0.32484,-1.02157"
       id="path250-8" />
    <path
       inkscape:connector-curvature="0"
       style="fill:#70c56e;fill-opacity:1;fill-rule:nonzero;stroke:none;stroke-width:0.14166956"
       d="m 227.38804,204.48332 c 0.49363,0.10128 0.98117,-0.21361 1.08411,-0.7006 l 0.56114,-2.65409 c 0.10293,-0.48643 -0.21638,-0.96789 -0.70946,-1.06916 -0.49307,-0.10183 -0.98117,0.21306 -1.0841,0.70004 l -0.56115,2.6541 c -0.10292,0.48698 0.21638,0.96788 0.70946,1.06971"
       id="path220-0" />
    <path
       inkscape:connector-curvature="0"
       style="fill:#70c56e;fill-opacity:1;fill-rule:nonzero;stroke:none;stroke-width:0.14166956"
       d="m 219.78382,202.04561 c 0.29551,0.40287 0.87104,0.49418 1.27945,0.20309 l 2.22687,-1.5888 c 0.40841,-0.29109 0.50082,-0.85942 0.20531,-1.26229 -0.29496,-0.40233 -0.8705,-0.49419 -1.2789,-0.20255 l -2.22687,1.5888 c -0.4084,0.29109 -0.50082,0.85887 -0.20586,1.26175"
       id="path222-1" />
    <path
       inkscape:connector-curvature="0"
       style="fill:#70c56e;fill-opacity:1;fill-rule:nonzero;stroke:none;stroke-width:0.14166956"
       d="m 233.88713,202.09099 0.70392,1.70279 c 0.13282,0.32319 0.50968,0.48036 0.8373,0.34865 l 0.0238,-0.01 c 0.18428,-0.0753 0.31599,-0.22523 0.37133,-0.39955 0.0371,-0.11787 0.0382,-0.24682 0,-0.37133 -0.006,-0.0182 -0.0127,-0.0371 -0.0199,-0.0553 l -0.70392,-1.7039 c -0.13337,-0.32319 -0.51023,-0.47925 -0.83729,-0.34864 l -0.0244,0.01 c -0.32706,0.1317 -0.48588,0.50414 -0.35085,0.82733"
       id="path224-1" />
    <path
       inkscape:connector-curvature="0"
       style="fill:#70c56e;fill-opacity:1;fill-rule:nonzero;stroke:none;stroke-width:0.14166956"
       d="m 228.11023,211.57787 0.0177,-0.0177 c 0.25013,-0.24626 0.25013,-0.64969 0,-0.8965 l -1.31875,-1.30103 c -0.25013,-0.24682 -0.65909,-0.24682 -0.90868,0 l -0.0177,0.0171 c -0.25013,0.24682 -0.25013,0.65025 0,0.89705 l 1.31875,1.30104 c 0.25013,0.24681 0.65854,0.24681 0.90868,0"
       id="path226-4" />
    <path
       inkscape:connector-curvature="0"
       style="fill:#70c56e;fill-opacity:1;fill-rule:nonzero;stroke:none;stroke-width:0.14166956"
       d="m 221.83692,208.26302 0.004,-0.0825 c 0.0166,-0.33259 -0.24571,-0.61814 -0.58273,-0.63419 l -1.64027,-0.0786 c -0.33646,-0.0161 -0.62589,0.24238 -0.64194,0.57498 l -0.004,0.0825 c -0.0166,0.33259 0.24571,0.6176 0.58217,0.63365 l 1.64027,0.0791 c 0.33647,0.016 0.62589,-0.24239 0.64195,-0.57498"
       id="path228-3" />
    <path
       inkscape:connector-curvature="0"
       style="fill:#70c56e;fill-opacity:1;fill-rule:nonzero;stroke:none;stroke-width:0.14166956"
       d="m 223.00902,214.78204 0.0675,-0.0498 c 0.26895,-0.20088 0.32263,-0.58218 0.11898,-0.84781 l -0.99003,-1.29217 c -0.20365,-0.26564 -0.58992,-0.31821 -0.85887,-0.11788 l -0.0675,0.0504 c -0.26896,0.20033 -0.32264,0.58217 -0.11898,0.84725 l 0.99002,1.29218 c 0.20365,0.26563 0.58993,0.3182 0.85888,0.11788"
       id="path230-1" />
    <path
       inkscape:connector-curvature="0"
       style="fill:#70c56e;fill-opacity:1;fill-rule:nonzero;stroke:none;stroke-width:0.14166956"
       d="m 232.4328,214.30113 -0.0393,-0.0736 c -0.1555,-0.29496 -0.5285,-0.41007 -0.82733,-0.25623 l -1.45543,0.74986 c -0.29884,0.15384 -0.4156,0.5213 -0.25955,0.81626 l 0.0387,0.0736 c 0.15607,0.29497 0.5285,0.41062 0.82789,0.25622 l 1.45488,-0.74985 c 0.29939,-0.15384 0.41615,-0.5213 0.26009,-0.81626"
       id="path232-0" />
    <path
       inkscape:connector-curvature="0"
       style="fill:#fdfdee;fill-opacity:1;fill-rule:nonzero;stroke:none;stroke-width:0.35277778"
       d="m -108.46209,-39.814867 h 82.208249 c -2.63481,-6.237001 -8.842876,-10.455177 -16.070685,-10.455177 -2.291676,0 -4.486893,0.475424 -6.493316,1.284333 -2.243448,-6.184636 -8.237913,-10.590223 -15.264529,-10.590223 -6.551192,0 -12.201152,3.840593 -14.753275,9.367901 -1.448319,-0.502984 -3.015149,-0.767567 -4.641234,-0.767567 -5.009168,0 -9.424405,2.567282 -11.953105,6.432682 -1.35323,-0.85438 -2.943489,-1.4304 -4.664655,-1.4304 -3.98804,0 -7.3353,2.59346 -8.36745,6.158451"
       id="path194-1" />
    <path
       inkscape:connector-curvature="0"
       style="fill:#4c9451;fill-opacity:1;fill-rule:nonzero;stroke:none;stroke-width:0.35277778"
       d="m -49.352602,252.88624 h -61.191838 c -2.33854,0 -4.23336,-1.89481 -4.23336,-4.23334 0,-2.33853 1.89482,-4.23333 4.23336,-4.23333 h 61.191838 c 2.33853,0 4.23333,1.8948 4.23333,4.23333 0,2.33853 -1.8948,4.23334 -4.23333,4.23334"
       id="path204-9" />
  </g>
</svg>
