<?xml version="1.0" encoding="UTF-8" standalone="no"?>
<!-- Created with Inkscape (http://www.inkscape.org/) -->

<svg
   xmlns:dc="http://purl.org/dc/elements/1.1/"
   xmlns:cc="http://creativecommons.org/ns#"
   xmlns:rdf="http://www.w3.org/1999/02/22-rdf-syntax-ns#"
   xmlns:svg="http://www.w3.org/2000/svg"
   xmlns="http://www.w3.org/2000/svg"
   xmlns:sodipodi="http://sodipodi.sourceforge.net/DTD/sodipodi-0.dtd"
   xmlns:inkscape="http://www.inkscape.org/namespaces/inkscape"
   version="1.1"
   id="svg83"
   width="1066.6667"
   height="736"
   viewBox="0 0 1066.6667 736"
   sodipodi:docname="pop-chicha.svg"
   inkscape:version="0.92.2 5c3e80d, 2017-08-06">
  <metadata
     id="metadata89">
    <rdf:RDF>
      <cc:Work
         rdf:about="">
        <dc:format>image/svg+xml</dc:format>
        <dc:type
           rdf:resource="http://purl.org/dc/dcmitype/StillImage" />
        <dc:title />
      </cc:Work>
    </rdf:RDF>
  </metadata>
  <defs
     id="defs87" />
  <sodipodi:namedview
     pagecolor="#ffffff"
     bordercolor="#666666"
     borderopacity="1"
     objecttolerance="10"
     gridtolerance="10"
     guidetolerance="10"
     inkscape:pageopacity="0"
     inkscape:pageshadow="2"
     inkscape:window-width="1224"
     inkscape:window-height="756"
     id="namedview85"
     showgrid="false"
     inkscape:zoom="0.5"
     inkscape:cx="473.16566"
     inkscape:cy="177.95301"
     inkscape:window-x="53"
     inkscape:window-y="0"
     inkscape:window-maximized="0"
     inkscape:current-layer="g1673" />
  <g
     id="g4718">
    <g
       id="g1232">
      <path
         style="fill:#dc829e;fill-opacity:1"
         d="m 624.64942,542.16993 c 79.44498,27.34162 241.42952,20.52107 286.88193,-1.35795 45.45241,-21.87902 54.09166,-204.93927 15.93727,-255.2915 -38.15438,-50.35222 -301.02524,-46.20992 -331.3358,-4.0738 -30.31057,42.13613 -50.92838,233.38162 28.5166,260.72325 z"
         id="rect3784"
         inkscape:connector-curvature="0"
         sodipodi:nodetypes="zzzzz" />
      <path
         style="fill:#dc829e;fill-opacity:1"
         d="m 1036.1033,420.28043 c 0,-30.37361 -29.8724,-56.35423 -54.99629,-56.35424 -25.12386,-1e-5 -57.71218,28.69648 -57.71218,59.07011 0,30.37362 35.30419,54.99631 60.42805,54.99631 25.12382,-2e-5 52.28042,-27.33857 52.28042,-57.71218 z"
         id="path4592"
         inkscape:connector-curvature="0"
         sodipodi:nodetypes="sssss" />
      <path
         sodipodi:nodetypes="sssss"
         inkscape:connector-curvature="0"
         id="path4713"
         d="m 490.64548,418.86622 c 0,-30.37361 29.8724,-56.35423 54.99629,-56.35424 25.12386,-10e-6 57.71218,28.69648 57.71218,59.07011 0,30.37362 -35.30419,54.99631 -60.42805,54.99631 -25.12382,-2e-5 -52.28042,-27.33857 -52.28042,-57.71218 z"
         style="fill:#dc829e;fill-opacity:1" />
      <g
         transform="matrix(0.84180511,0,0,0.86398891,125.663,78.010815)"
         id="g1187">
        <path
           style="fill:#dc829e;fill-opacity:1;stroke-width:0.47526029"
           d="m 695.47757,677.10769 c 37.21315,13.1843 113.08902,9.41319 134.84798,-0.65482 21.75898,-10.068 24.8689,-98.82304 6.99684,-123.10321 -17.87205,-24.28016 -141.0045,-22.28272 -155.20239,-1.96441 -14.19792,20.31832 -23.85559,112.53812 13.35757,125.72244 z"
           id="path4749"
           inkscape:connector-curvature="0"
           sodipodi:nodetypes="zzzzz" />
        <path
           style="fill:#dc829e;fill-opacity:1"
           d="m 927.1033,581.28043 c 0,-30.37361 -30.8724,-30.35423 -55.99629,-30.35424 -25.12386,-10e-6 -56.71218,2.69648 -56.71218,33.07011 0,30.37362 37.30419,29.99631 62.42805,29.99631 25.12382,-2e-5 50.28042,-2.33857 50.28042,-32.71218 z"
           id="path68"
           inkscape:connector-curvature="0"
           sodipodi:nodetypes="sssss" />
        <path
           sodipodi:nodetypes="sssss"
           inkscape:connector-curvature="0"
           id="path90"
           d="m 711.1033,578.28043 c 0,-30.37361 -30.8724,-30.35423 -55.99629,-30.35424 -25.12386,-10e-6 -56.71218,2.69648 -56.71218,33.07011 0,30.37362 37.30419,29.99631 62.42805,29.99631 25.12382,-2e-5 50.28042,-2.33857 50.28042,-32.71218 z"
           style="fill:#dc829e;fill-opacity:1" />
        <path
           style="fill:#dc829e;fill-opacity:1"
           d="m 742.62358,645.07448 c -8.33957,-29.04859 -38.07857,-20.19559 -62.28444,-13.00614 -24.20584,7.18944 -53.89955,18.80763 -45.55998,47.85624 8.33957,29.0486 44.17707,18.01276 68.3829,10.82332 24.20579,-7.18947 47.80108,-16.62483 39.46152,-45.67342 z"
           id="path92"
           inkscape:connector-curvature="0"
           sodipodi:nodetypes="sssss" />
        <path
           sodipodi:nodetypes="sssss"
           inkscape:connector-curvature="0"
           id="path114"
           d="m 768.46953,652.15679 c 2.58848,-30.05799 33.50514,-26.80761 58.6664,-24.1781 25.16122,2.62953 56.56671,8.60412 53.97823,38.66213 -2.58849,30.058 -39.916,25.78025 -65.07722,23.15072 -25.16118,-2.62955 -50.1559,-7.57676 -47.56741,-37.63475 z"
           style="fill:#dc829e;fill-opacity:1" />
        <path
           style="fill:#dc829e;fill-opacity:1;stroke-width:1.00207305"
           d="m 912.30904,684.60869 c 13.14372,-26.93509 14.15765,-42.63966 -9.23912,-52.99256 -23.39676,-10.35291 -37.19007,2.62535 -50.3338,29.56046 -13.14373,26.93512 -9.50869,41.07605 13.88807,51.42893 23.39674,10.35285 32.54113,-1.06172 45.68485,-27.99683 z"
           id="path116"
           inkscape:connector-curvature="0"
           sodipodi:nodetypes="sssss" />
        <path
           sodipodi:nodetypes="sssss"
           inkscape:connector-curvature="0"
           id="path127"
           d="m 605.81247,679.29384 c -13.14372,-26.93509 -14.15765,-42.63966 9.23912,-52.99256 23.39676,-10.35291 37.19007,2.62535 50.3338,29.56046 13.14373,26.93512 9.50869,41.07605 -13.88807,51.42893 -23.39674,10.35285 -32.54113,-1.06172 -45.68485,-27.99683 z"
           style="fill:#dc829e;fill-opacity:1;stroke-width:1.00207305" />
        <g
           id="g1204">
          <path
             transform="matrix(0.27425275,1.1261548,1.155832,-0.26721105,-371.40765,102.13612)"
             d="m 567.60329,617.67205 c 5.42922,-8.65555 17.9965,-6.16017 24.24209,-0.0261 12.07386,11.85819 7.26935,31.61008 -4.66896,41.55197 -19.00172,15.82412 -47.30209,8.21424 -61.18344,-10.51255 -19.88036,-26.81983 -9.07107,-64.67084 17.23198,-82.73369 35.24693,-24.20482 83.47136,-9.87273 105.94497,24.67444 6.27839,9.65135 10.55635,20.55796 12.63069,31.87812"
             sodipodi:t0="0.20583768"
             sodipodi:argument="-16.714491"
             sodipodi:radius="89.913086"
             sodipodi:revolution="1.6522325"
             sodipodi:expansion="1.37"
             sodipodi:cy="627"
             sodipodi:cx="572"
             id="path1195"
             style="fill:none;fill-rule:evenodd;stroke:#dc829e;stroke-width:15.59999943;stroke-miterlimit:4;stroke-dasharray:none;stroke-opacity:1"
             sodipodi:type="spiral" />
          <path
             style="fill:none;stroke:#dc829e;stroke-width:18.29214859;stroke-linecap:butt;stroke-linejoin:miter;stroke-miterlimit:4;stroke-dasharray:none;stroke-opacity:1"
             d="m 527.18806,681.11722 c 22.57976,-0.92547 63.25707,-0.85604 96.87821,-2.89881 l -18.2538,1.07543"
             id="path1197"
             inkscape:connector-curvature="0"
             sodipodi:nodetypes="ccc" />
          <path
             style="fill:#dc829e;fill-opacity:1;stroke:none;stroke-width:10.52080154;stroke-miterlimit:4;stroke-dasharray:none;stroke-dashoffset:0;stroke-opacity:1"
             id="path1199"
             sodipodi:type="arc"
             sodipodi:cx="498.19949"
             sodipodi:cy="575.37048"
             sodipodi:rx="8.5979776"
             sodipodi:ry="9.2630615"
             sodipodi:start="3.4895273"
             sodipodi:end="0.88420603"
             d="m 490.11672,572.21218 a 8.5979776,9.2630615 0 0 1 8.10937,-6.10471 8.5979776,9.2630615 0 0 1 8.07416,6.15864 8.5979776,9.2630615 0 0 1 -2.65047,10.26854"
             sodipodi:open="true" />
        </g>
      </g>
      <path
         sodipodi:nodetypes="zzsscssz"
         inkscape:connector-curvature="0"
         id="path152"
         d="m 645.64942,536.16993 c 74.87505,12.10851 191.03655,24.21116 254.88193,-8.35795 63.84538,-32.56911 36.30189,-201.13709 21.93727,-221.2915 -24.0956,-33.80755 -49.57783,-41.64504 -79.06554,-39.21736 -29.48771,2.42768 -85.54418,39.49404 -85.54418,39.49404 0,0 -56.56617,-33.65258 -87.07327,-36.66276 -30.5071,-3.01018 -50.11079,5.47548 -71.65281,37.31228 -25.46338,37.63216 -28.35845,216.61474 46.5166,228.72325 z"
         style="fill:#ffccaa;fill-opacity:1" />
      <path
         sodipodi:nodetypes="csc"
         inkscape:connector-curvature="0"
         id="path1132"
         d="m 645,464 c 34.96933,27.91586 74.57755,70.06183 113.51432,71.90586 C 797.4511,537.74988 835.71644,499.29196 880,466"
         style="fill:none;fill-opacity:1;stroke:#d97f6c;stroke-width:2.5999999;stroke-linecap:butt;stroke-linejoin:miter;stroke-miterlimit:4;stroke-dasharray:none;stroke-dashoffset:0;stroke-opacity:1" />
      <g
         id="g1112">
        <g
           id="g135"
           transform="matrix(0.625,0,0,0.64179105,620.625,150.16418)">
          <ellipse
             ry="67"
             rx="68"
             cy="355"
             cx="379"
             id="path129"
             style="fill:#333333" />
          <ellipse
             ry="19"
             rx="20"
             cy="327"
             cx="406"
             id="path131"
             style="fill:#4d4d4d;stroke-width:1.34438539" />
        </g>
        <g
           transform="matrix(0.625,0,0,0.62686567,437.625,157.46269)"
           id="g141">
          <ellipse
             style="fill:#333333"
             id="ellipse137"
             cx="379"
             cy="355"
             rx="68"
             ry="67" />
          <ellipse
             style="fill:#4d4d4d;stroke-width:1.34438539"
             id="ellipse139"
             cx="406"
             cy="327"
             rx="20"
             ry="19" />
        </g>
        <circle
           r="25"
           cy="455"
           cx="632"
           id="path1156"
           style="fill:#d98d41;fill-opacity:1;stroke:none;stroke-width:2.5999999;stroke-miterlimit:4;stroke-dasharray:none;stroke-dashoffset:0;stroke-opacity:1" />
        <circle
           style="fill:#d98d41;fill-opacity:1;stroke:none;stroke-width:2.5999999;stroke-miterlimit:4;stroke-dasharray:none;stroke-dashoffset:0;stroke-opacity:1"
           id="circle1178"
           cx="875"
           cy="461"
           r="25" />
      </g>
    </g>
    <g
       id="g1386"
       transform="translate(-470,-240)">
      <path
         sodipodi:nodetypes="zzzzz"
         inkscape:connector-curvature="0"
         id="path1334"
         d="m 624.64942,542.16993 c 79.44498,27.34162 241.42952,20.52107 286.88193,-1.35795 45.45241,-21.87902 54.09166,-204.93927 15.93727,-255.2915 -38.15438,-50.35222 -301.02524,-46.20992 -331.3358,-4.0738 -30.31057,42.13613 -50.92838,233.38162 28.5166,260.72325 z"
         style="fill:#dc829e;fill-opacity:1" />
      <path
         sodipodi:nodetypes="sssss"
         inkscape:connector-curvature="0"
         id="path1336"
         d="m 1031.9315,413.45061 c -8.0058,-29.29953 -43.66985,-46.48765 -67.90531,-39.86552 -24.23542,6.62213 -48.10753,42.89346 -40.10166,72.19301 8.00587,29.29954 48.55166,43.74604 72.78709,37.12391 24.23538,-6.62215 43.22578,-40.15187 35.21988,-69.4514 z"
         style="fill:#dc829e;fill-opacity:1" />
      <path
         style="fill:#dc829e;fill-opacity:1"
         d="m 493.53463,419.55095 c 5.02575,-29.95493 38.78525,-50.6346 63.56283,-46.4775 24.77755,4.1571 52.16841,37.85024 47.14265,67.80519 -5.02575,29.95494 -43.91748,48.39663 -68.69503,44.23953 -24.7775,-4.15712 -47.03621,-35.61228 -42.01045,-65.56722 z"
         id="path1338"
         inkscape:connector-curvature="0"
         sodipodi:nodetypes="sssss" />
      <g
         id="g1362"
         transform="matrix(0.84180511,0,0,0.86398891,125.663,78.010815)">
        <path
           sodipodi:nodetypes="zzzzz"
           inkscape:connector-curvature="0"
           id="path1340"
           d="m 695.47757,677.10769 c 37.21315,13.1843 113.08902,9.41319 134.84798,-0.65482 21.75898,-10.068 24.8689,-98.82304 6.99684,-123.10321 -17.87205,-24.28016 -141.0045,-22.28272 -155.20239,-1.96441 -14.19792,20.31832 -23.85559,112.53812 13.35757,125.72244 z"
           style="fill:#dc829e;fill-opacity:1;stroke-width:0.47526029" />
        <path
           sodipodi:nodetypes="sssss"
           inkscape:connector-curvature="0"
           id="path1342"
           d="m 927.1033,581.28043 c 0,-30.37361 -30.8724,-30.35423 -55.99629,-30.35424 -25.12386,-10e-6 -56.71218,2.69648 -56.71218,33.07011 0,30.37362 37.30419,29.99631 62.42805,29.99631 25.12382,-2e-5 50.28042,-2.33857 50.28042,-32.71218 z"
           style="fill:#dc829e;fill-opacity:1" />
        <path
           style="fill:#dc829e;fill-opacity:1"
           d="m 711.1033,578.28043 c 0,-30.37361 -30.8724,-30.35423 -55.99629,-30.35424 -25.12386,-10e-6 -56.71218,2.69648 -56.71218,33.07011 0,30.37362 37.30419,29.99631 62.42805,29.99631 25.12382,-2e-5 50.28042,-2.33857 50.28042,-32.71218 z"
           id="path1344"
           inkscape:connector-curvature="0"
           sodipodi:nodetypes="sssss" />
        <path
           sodipodi:nodetypes="sssss"
           inkscape:connector-curvature="0"
           id="path1346"
           d="m 742.62358,645.07448 c -8.33957,-29.04859 -38.07857,-20.19559 -62.28444,-13.00614 -24.20584,7.18944 -53.89955,18.80763 -45.55998,47.85624 8.33957,29.0486 44.17707,18.01276 68.3829,10.82332 24.20579,-7.18947 47.80108,-16.62483 39.46152,-45.67342 z"
           style="fill:#dc829e;fill-opacity:1" />
        <path
           style="fill:#dc829e;fill-opacity:1"
           d="m 768.46953,652.15679 c 2.58848,-30.05799 33.50514,-26.80761 58.6664,-24.1781 25.16122,2.62953 56.56671,8.60412 53.97823,38.66213 -2.58849,30.058 -39.916,25.78025 -65.07722,23.15072 -25.16118,-2.62955 -50.1559,-7.57676 -47.56741,-37.63475 z"
           id="path1348"
           inkscape:connector-curvature="0"
           sodipodi:nodetypes="sssss" />
        <path
           sodipodi:nodetypes="sssss"
           inkscape:connector-curvature="0"
           id="path1350"
           d="m 912.30904,684.60869 c 13.14372,-26.93509 14.15765,-42.63966 -9.23912,-52.99256 -23.39676,-10.35291 -37.19007,2.62535 -50.3338,29.56046 -13.14373,26.93512 -9.50869,41.07605 13.88807,51.42893 23.39674,10.35285 32.54113,-1.06172 45.68485,-27.99683 z"
           style="fill:#dc829e;fill-opacity:1;stroke-width:1.00207305" />
        <path
           style="fill:#dc829e;fill-opacity:1;stroke-width:1.00207305"
           d="m 605.81247,679.29384 c -13.14372,-26.93509 -14.15765,-42.63966 9.23912,-52.99256 23.39676,-10.35291 37.19007,2.62535 50.3338,29.56046 13.14373,26.93512 9.50869,41.07605 -13.88807,51.42893 -23.39674,10.35285 -32.54113,-1.06172 -45.68485,-27.99683 z"
           id="path1352"
           inkscape:connector-curvature="0"
           sodipodi:nodetypes="sssss" />
        <g
           id="g1360">
          <path
             sodipodi:type="spiral"
             style="fill:none;fill-rule:evenodd;stroke:#dc829e;stroke-width:15.59999943;stroke-miterlimit:4;stroke-dasharray:none;stroke-opacity:1"
             id="path1354"
             sodipodi:cx="572"
             sodipodi:cy="627"
             sodipodi:expansion="1.37"
             sodipodi:revolution="1.6522325"
             sodipodi:radius="89.913086"
             sodipodi:argument="-16.714491"
             sodipodi:t0="0.20583768"
             d="m 567.60329,617.67205 c 5.42922,-8.65555 17.9965,-6.16017 24.24209,-0.0261 12.07386,11.85819 7.26935,31.61008 -4.66896,41.55197 -19.00172,15.82412 -47.30209,8.21424 -61.18344,-10.51255 -19.88036,-26.81983 -9.07107,-64.67084 17.23198,-82.73369 35.24693,-24.20482 83.47136,-9.87273 105.94497,24.67444 6.27839,9.65135 10.55635,20.55796 12.63069,31.87812"
             transform="matrix(0.27425275,1.1261548,1.155832,-0.26721105,-371.40765,102.13612)" />
          <path
             sodipodi:nodetypes="ccc"
             inkscape:connector-curvature="0"
             id="path1356"
             d="m 527.18806,681.11722 c 22.57976,-0.92547 63.25707,-0.85604 96.87821,-2.89881 l -18.2538,1.07543"
             style="fill:none;stroke:#dc829e;stroke-width:18.29214859;stroke-linecap:butt;stroke-linejoin:miter;stroke-miterlimit:4;stroke-dasharray:none;stroke-opacity:1" />
          <path
             sodipodi:open="true"
             d="m 490.11672,572.21218 a 8.5979776,9.2630615 0 0 1 8.10937,-6.10471 8.5979776,9.2630615 0 0 1 8.07416,6.15864 8.5979776,9.2630615 0 0 1 -2.65047,10.26854"
             sodipodi:end="0.88420603"
             sodipodi:start="3.4895273"
             sodipodi:ry="9.2630615"
             sodipodi:rx="8.5979776"
             sodipodi:cy="575.37048"
             sodipodi:cx="498.19949"
             sodipodi:type="arc"
             id="path1358"
             style="fill:#dc829e;fill-opacity:1;stroke:none;stroke-width:10.52080154;stroke-miterlimit:4;stroke-dasharray:none;stroke-dashoffset:0;stroke-opacity:1" />
        </g>
      </g>
      <path
         style="fill:#ffccaa;fill-opacity:1"
         d="m 645.64942,536.16993 c 74.87505,12.10851 191.03655,24.21116 254.88193,-8.35795 63.84538,-32.56911 36.30189,-201.13709 21.93727,-221.2915 -24.0956,-33.80755 -49.57783,-41.64504 -79.06554,-39.21736 -29.48771,2.42768 -85.54418,39.49404 -85.54418,39.49404 0,0 -56.56617,-33.65258 -87.07327,-36.66276 -30.5071,-3.01018 -50.11079,5.47548 -71.65281,37.31228 -25.46338,37.63216 -28.35845,216.61474 46.5166,228.72325 z"
         id="path1364"
         inkscape:connector-curvature="0"
         sodipodi:nodetypes="zzsscssz" />
      <g
         id="g1384">
        <circle
           style="fill:#d98d41;fill-opacity:1;stroke:none;stroke-width:2.5999999;stroke-miterlimit:4;stroke-dasharray:none;stroke-dashoffset:0;stroke-opacity:1"
           id="circle1380"
           cx="632"
           cy="455"
           r="25" />
        <circle
           r="25"
           cy="461"
           cx="875"
           id="circle1382"
           style="fill:#d98d41;fill-opacity:1;stroke:none;stroke-width:2.5999999;stroke-miterlimit:4;stroke-dasharray:none;stroke-dashoffset:0;stroke-opacity:1" />
        <g
           id="g1529">
          <g
             id="g1496"
             transform="matrix(-0.71257526,-0.12051866,-0.12713331,0.71228364,993.49191,164.12592)">
            <path
               style="fill:#f2f2f2;stroke:#333333;stroke-width:19.31506348;stroke-miterlimit:4;stroke-dasharray:none;stroke-opacity:1"
               d="m 447,355 c 0,37.00308 -30.44464,67 -68,67 -37.55536,0 -68,-29.99692 -68,-67 l 66.80332,-0.0129 z"
               id="path1494"
               inkscape:connector-curvature="0"
               sodipodi:nodetypes="csccc" />
          </g>
          <g
             transform="matrix(0.71257526,-0.12051866,0.12713331,0.71228364,537.9602,164.8129)"
             id="g1521">
            <path
               sodipodi:nodetypes="csccc"
               inkscape:connector-curvature="0"
               id="path1519"
               d="m 447,355 c 0,37.00308 -30.44464,67 -68,67 -37.55536,0 -68,-29.99692 -68,-67 l 66.80332,-0.0129 z"
               style="fill:#f2f2f2;stroke:#333333;stroke-width:19.31506348;stroke-miterlimit:4;stroke-dasharray:none;stroke-opacity:1" />
          </g>
        </g>
        <g
           id="g1556">
          <path
             sodipodi:nodetypes="cscc"
             inkscape:connector-curvature="0"
             id="path1523"
             d="m 838.90858,279.40166 c 0,0 21.03146,18.09209 19.23546,24.7313 -1.796,6.63921 -28.1662,13.73961 -28.1662,13.73961 v 0"
             style="fill:none;stroke:#ce0000;stroke-width:6.19999981;stroke-linecap:butt;stroke-linejoin:miter;stroke-miterlimit:4;stroke-dasharray:none;stroke-opacity:1" />
          <path
             style="fill:none;stroke:#ce0000;stroke-width:5.22115755;stroke-linecap:butt;stroke-linejoin:miter;stroke-miterlimit:4;stroke-dasharray:none;stroke-opacity:1"
             d="m 889.2066,279.22021 c 0,0 -12.965,18.1781 -19.08468,17.34335 -6.11967,-0.83473 -16.16447,-21.01567 -16.16447,-21.01567 v 0"
             id="path1540"
             inkscape:connector-curvature="0"
             sodipodi:nodetypes="cscc" />
          <path
             sodipodi:nodetypes="csc"
             inkscape:connector-curvature="0"
             id="path1551"
             d="m 857.56625,331.10013 c 0,0 9.22595,-20.10513 12.99802,-23.62066 3.77206,-3.51555 21.95327,2.65056 21.95327,2.65056"
             style="fill:none;stroke:#ce0000;stroke-width:4.41210032;stroke-linecap:butt;stroke-linejoin:miter;stroke-miterlimit:4;stroke-dasharray:none;stroke-opacity:1" />
        </g>
      </g>
      <path
         style="fill:#ffaaaa;fill-opacity:1;stroke:#333333;stroke-width:3.09408593;stroke-miterlimit:4;stroke-dasharray:none;stroke-dashoffset:0;stroke-opacity:1"
         d="m 722.62616,467.44496 c 0.66758,0.88803 1.99468,7.18667 4.30688,7.81766 2.3122,0.63099 7.12537,-4.39151 9.09792,-4.01286 1.6372,0.31428 8.00438,5.6449 10.52457,5.71254 2.37698,0.0382 11.70809,-4.49048 14.18457,-4.65264 2.47649,-0.027 8.73408,4.44795 11.12156,4.23945 2.94726,0.0619 7.87022,-4.98375 11.97123,-5.47164 2.98145,-0.48789 6.83292,3.50784 9.1766,2.99278 2.34366,-0.51506 5.38681,-5.4242 6.09636,-6.06422 5.67637,-5.12018 21.86171,80.47725 19.74335,86.20623 -2.11836,5.72898 -113.91235,4.66313 -120.03119,-2.80533 -6.11885,-7.46847 18.46751,-91.06624 23.80815,-83.96197 z"
         id="rect1466"
         inkscape:connector-curvature="0"
         sodipodi:nodetypes="ssscccccszzs" />
    </g>
    <g
       id="g1673"
       style="fill:#aa0000"
       transform="matrix(0.47421437,0.2717762,-0.28252991,0.45616471,402.63883,206.83446)">
      <g
         id="g1728">
        <g
           transform="matrix(1.5563197,-0.92723228,0.96392124,1.6179006,-949.85932,1476.6951)"
           id="g1658"
           style="">
          <path
             style="fill:#dc829e;fill-opacity:1"
             d="m 624.64942,542.16993 c 79.44498,27.34162 241.42952,20.52107 286.88193,-1.35795 45.45241,-21.87902 54.09166,-204.93927 15.93727,-255.2915 -38.15438,-50.35222 -301.02524,-46.20992 -331.3358,-4.0738 -30.31057,42.13613 -50.92838,233.38162 28.5166,260.72325 z"
             id="path1606"
             inkscape:connector-curvature="0"
             sodipodi:nodetypes="zzzzz" />
          <path
             style="fill:#dc829e;fill-opacity:1"
             d="m 1033.3296,408.90713 c 4.7216,-30.00439 -20.7488,-60.31293 -45.56729,-64.21853 -24.81842,-3.9056 -61.47155,19.37607 -66.19322,49.38045 -4.72169,30.00438 26.32564,59.81589 51.14407,63.72149 24.8184,3.90556 55.89474,-18.87906 60.61644,-48.88341 z"
             id="path1608"
             inkscape:connector-curvature="0"
             sodipodi:nodetypes="sssss" />
          <path
             sodipodi:nodetypes="sssss"
             inkscape:connector-curvature="0"
             id="path1610"
             d="m 494.81972,415.06258 c -8.71407,-29.09676 12.44881,-62.55547 36.51653,-69.76343 24.06769,-7.20795 63.51896,10.93272 72.23304,40.0295 8.71408,29.09676 -18.04183,62.81299 -42.10952,70.02093 -24.06767,7.20791 -57.92597,-11.19025 -66.64005,-40.287 z"
             style="fill:#dc829e;fill-opacity:1" />
          <g
             transform="matrix(0.84180511,0,0,0.86398891,125.663,78.010815)"
             id="g1634">
            <path
               style="fill:#dc829e;fill-opacity:1;stroke-width:0.47526029"
               d="m 695.47757,677.10769 c 37.21315,13.1843 113.08902,9.41319 134.84798,-0.65482 21.75898,-10.068 24.8689,-98.82304 6.99684,-123.10321 -17.87205,-24.28016 -141.0045,-22.28272 -155.20239,-1.96441 -14.19792,20.31832 -23.85559,112.53812 13.35757,125.72244 z"
               id="path1612"
               inkscape:connector-curvature="0"
               sodipodi:nodetypes="zzzzz" />
            <path
               style="fill:#dc829e;fill-opacity:1"
               d="m 927.1033,581.28043 c 0,-30.37361 -30.8724,-30.35423 -55.99629,-30.35424 -25.12386,-10e-6 -56.71218,2.69648 -56.71218,33.07011 0,30.37362 37.30419,29.99631 62.42805,29.99631 25.12382,-2e-5 50.28042,-2.33857 50.28042,-32.71218 z"
               id="path1614"
               inkscape:connector-curvature="0"
               sodipodi:nodetypes="sssss" />
            <path
               sodipodi:nodetypes="sssss"
               inkscape:connector-curvature="0"
               id="path1616"
               d="m 711.1033,578.28043 c 0,-30.37361 -30.8724,-30.35423 -55.99629,-30.35424 -25.12386,-10e-6 -56.71218,2.69648 -56.71218,33.07011 0,30.37362 37.30419,29.99631 62.42805,29.99631 25.12382,-2e-5 50.28042,-2.33857 50.28042,-32.71218 z"
               style="fill:#dc829e;fill-opacity:1" />
            <path
               style="fill:#dc829e;fill-opacity:1"
               d="m 742.62358,645.07448 c -8.33957,-29.04859 -38.07857,-20.19559 -62.28444,-13.00614 -24.20584,7.18944 -53.89955,18.80763 -45.55998,47.85624 8.33957,29.0486 44.17707,18.01276 68.3829,10.82332 24.20579,-7.18947 47.80108,-16.62483 39.46152,-45.67342 z"
               id="path1618"
               inkscape:connector-curvature="0"
               sodipodi:nodetypes="sssss" />
            <path
               sodipodi:nodetypes="sssss"
               inkscape:connector-curvature="0"
               id="path1620"
               d="m 768.46953,652.15679 c 2.58848,-30.05799 33.50514,-26.80761 58.6664,-24.1781 25.16122,2.62953 56.56671,8.60412 53.97823,38.66213 -2.58849,30.058 -39.916,25.78025 -65.07722,23.15072 -25.16118,-2.62955 -50.1559,-7.57676 -47.56741,-37.63475 z"
               style="fill:#dc829e;fill-opacity:1" />
            <path
               style="fill:#dc829e;fill-opacity:1;stroke-width:1.00207305"
               d="m 912.30904,684.60869 c 13.14372,-26.93509 14.15765,-42.63966 -9.23912,-52.99256 -23.39676,-10.35291 -37.19007,2.62535 -50.3338,29.56046 -13.14373,26.93512 -9.50869,41.07605 13.88807,51.42893 23.39674,10.35285 32.54113,-1.06172 45.68485,-27.99683 z"
               id="path1622"
               inkscape:connector-curvature="0"
               sodipodi:nodetypes="sssss" />
            <path
               sodipodi:nodetypes="sssss"
               inkscape:connector-curvature="0"
               id="path1624"
               d="m 605.81247,679.29384 c -13.14372,-26.93509 -14.15765,-42.63966 9.23912,-52.99256 23.39676,-10.35291 37.19007,2.62535 50.3338,29.56046 13.14373,26.93512 9.50869,41.07605 -13.88807,51.42893 -23.39674,10.35285 -32.54113,-1.06172 -45.68485,-27.99683 z"
               style="fill:#dc829e;fill-opacity:1;stroke-width:1.00207305" />
            <g
               id="g1632">
              <path
                 transform="matrix(0.27425275,1.1261548,1.155832,-0.26721105,-371.40765,102.13612)"
                 d="m 567.60329,617.67205 c 5.42922,-8.65555 17.9965,-6.16017 24.24209,-0.0261 12.07386,11.85819 7.26935,31.61008 -4.66896,41.55197 -19.00172,15.82412 -47.30209,8.21424 -61.18344,-10.51255 -19.88036,-26.81983 -9.07107,-64.67084 17.23198,-82.73369 35.24693,-24.20482 83.47136,-9.87273 105.94497,24.67444 6.27839,9.65135 10.55635,20.55796 12.63069,31.87812"
                 sodipodi:t0="0.20583768"
                 sodipodi:argument="-16.714491"
                 sodipodi:radius="89.913086"
                 sodipodi:revolution="1.6522325"
                 sodipodi:expansion="1.37"
                 sodipodi:cy="627"
                 sodipodi:cx="572"
                 id="path1626"
                 style="fill:none;fill-rule:evenodd;stroke:#dc829e;stroke-width:15.59999943;stroke-miterlimit:4;stroke-dasharray:none;stroke-opacity:1"
                 sodipodi:type="spiral" />
              <path
                 style="fill:none;stroke:#dc829e;stroke-width:18.29214859;stroke-linecap:butt;stroke-linejoin:miter;stroke-miterlimit:4;stroke-dasharray:none;stroke-opacity:1"
                 d="m 527.18806,681.11722 c 22.57976,-0.92547 63.25707,-0.85604 96.87821,-2.89881 l -18.2538,1.07543"
                 id="path1628"
                 inkscape:connector-curvature="0"
                 sodipodi:nodetypes="ccc" />
              <path
                 style="fill:#dc829e;fill-opacity:1;stroke:none;stroke-width:10.52080154;stroke-miterlimit:4;stroke-dasharray:none;stroke-dashoffset:0;stroke-opacity:1"
                 id="path1630"
                 sodipodi:type="arc"
                 sodipodi:cx="498.19949"
                 sodipodi:cy="575.37048"
                 sodipodi:rx="8.5979776"
                 sodipodi:ry="9.2630615"
                 sodipodi:start="3.4895273"
                 sodipodi:end="0.88420603"
                 d="m 490.11672,572.21218 a 8.5979776,9.2630615 0 0 1 8.10937,-6.10471 8.5979776,9.2630615 0 0 1 8.07416,6.15864 8.5979776,9.2630615 0 0 1 -2.65047,10.26854"
                 sodipodi:open="true" />
            </g>
          </g>
          <path
             sodipodi:nodetypes="zzsscssz"
             inkscape:connector-curvature="0"
             id="path1636"
             d="m 645.64942,536.16993 c 74.87505,12.10851 191.03655,24.21116 254.88193,-8.35795 63.84538,-32.56911 36.30189,-201.13709 21.93727,-221.2915 -24.0956,-33.80755 -49.57783,-41.64504 -79.06554,-39.21736 -29.48771,2.42768 -85.54418,39.49404 -85.54418,39.49404 0,0 -56.56617,-33.65258 -87.07327,-36.66276 -30.5071,-3.01018 -50.11079,5.47548 -71.65281,37.31228 -25.46338,37.63216 -28.35845,216.61474 46.5166,228.72325 z"
             style="fill:#ffccaa;fill-opacity:1" />
          <path
             sodipodi:nodetypes="csczc"
             inkscape:connector-curvature="0"
             id="path1638"
             d="m 657.45363,477.98145 c 13.44109,38.97415 63.91647,62.83845 103.23226,64.5102 38.94523,1.65599 83.48418,-48.21824 86.76774,-65.5102 0,0 -57.37043,-14.82354 -96.53709,-15.15687 -39.16667,-0.33334 -93.46291,16.15687 -93.46291,16.15687 z"
             style="fill:#ffaaaa;fill-opacity:1;stroke:#d98d41;stroke-width:2.5999999;stroke-linecap:butt;stroke-linejoin:miter;stroke-miterlimit:4;stroke-dasharray:none;stroke-dashoffset:0;stroke-opacity:1" />
          <g
             id="g1656">
            <g
               id="g1644"
               transform="matrix(0.625,0,0,0.57846805,620.625,183.95755)">
              <path
                 sodipodi:nodetypes="sssss"
                 inkscape:connector-curvature="0"
                 id="ellipse1640"
                 d="m 444.73725,355 c 0,37.00308 -5.04794,-43.01404 -64.60589,-43.01405 -64.08342,-10e-6 -69.13137,80.01713 -69.13137,43.01405 0,-37.00308 29.93811,-67 66.86863,-67 36.93052,0 66.86863,29.99692 66.86863,67 z"
                 style="fill:#333333;stroke-width:0.99164623" />
              <path
                 style="fill:#333333;stroke-width:0.99164623"
                 d="m 148.31809,355 c 0,37.00308 -5.04794,-43.01404 -64.605893,-43.01405 -64.08342,-10e-6 -69.13137,80.01713 -69.13137,43.01405 0,-37.00308 29.93811,-67 66.86863,-67 36.930523,0 66.868633,29.99692 66.868633,67 z"
                 id="path1661"
                 inkscape:connector-curvature="0"
                 sodipodi:nodetypes="sssss" />
            </g>
            <g
               transform="matrix(0.625,0,0,0.62686567,437.625,157.46269)"
               id="g1650" />
            <circle
               r="25"
               cy="467"
               cx="638"
               id="circle1652"
               style="fill:#d98d41;fill-opacity:1;stroke:none;stroke-width:2.5999999;stroke-miterlimit:4;stroke-dasharray:none;stroke-dashoffset:0;stroke-opacity:1" />
            <circle
               style="fill:#d98d41;fill-opacity:1;stroke:none;stroke-width:2.5999999;stroke-miterlimit:4;stroke-dasharray:none;stroke-dashoffset:0;stroke-opacity:1"
               id="circle1654"
               cx="867"
               cy="467"
               r="25" />
          </g>
        </g>
        <path
           style="fill:#aa0000;fill-opacity:1;stroke:none;stroke-width:6.19999981;stroke-miterlimit:4;stroke-dasharray:none;stroke-dashoffset:0;stroke-opacity:1"
           d="m 636.53216,816.36435 75.99369,-15.45769 17.37317,246.90824 -36.64059,9.5058 z"
           id="rect1663"
           inkscape:connector-curvature="0"
           sodipodi:nodetypes="ccccc" />
        <path
           sodipodi:nodetypes="ccccc"
           inkscape:connector-curvature="0"
           id="path1666"
           d="m 794.40488,840.06194 56.8068,17.50922 -70.70557,192.48554 -28.07557,-6.8972 z"
           style="fill:#aa0000;fill-opacity:1;stroke:none;stroke-width:4.95837212;stroke-miterlimit:4;stroke-dasharray:none;stroke-dashoffset:0;stroke-opacity:1" />
        <path
           style="fill:#aa0000;fill-opacity:1;stroke:none;stroke-width:4.83802319;stroke-miterlimit:4;stroke-dasharray:none;stroke-dashoffset:0;stroke-opacity:1"
           d="m 928.13119,911.33339 48.31761,37.77936 -145.91702,125.75355 -24.58304,-17.2555 z"
           id="path1668"
           inkscape:connector-curvature="0"
           sodipodi:nodetypes="ccccc" />
      </g>
    </g>
  </g>
</svg>
